<svg width="812" height="281" viewBox="0 0 812 281" fill="none" xmlns="http://www.w3.org/2000/svg">
<g clip-path="url(#clip0_459_615)">
<rect width="812" height="282" fill="#1F2023"/>
<g opacity="0.1">
<path d="M749.328 196.589C749.328 187.188 741.463 179.566 731.76 179.566C722.058 179.566 714.191 187.188 714.191 196.589C714.191 205.991 722.058 213.612 731.76 213.612C741.463 213.612 749.328 205.991 749.328 196.589Z" fill="#E03C8A"/>
<path fill-rule="evenodd" clip-rule="evenodd" d="M788.817 164.938C792.527 150.33 797.191 123.242 780.751 114.058C764.388 104.914 743.095 122.435 731.851 132.952C720.64 122.54 698.748 105.093 682.323 114.306C665.966 123.481 671.01 150.121 674.802 164.82C659.544 169.019 633.389 178.064 633.389 196.542C633.389 214.968 659.517 224.808 674.685 229.003C670.878 243.784 666.087 270.043 682.464 279.197C698.952 288.409 720.775 271.377 732.123 260.745C743.439 271.324 764.528 288.467 780.894 279.287C797.311 270.078 793.036 243.353 789.243 228.568C803.946 224.364 830.131 214.738 830.131 196.542C830.131 178.241 803.835 169.124 788.817 164.938ZM786.954 220.733C784.464 213.095 781.103 204.973 776.991 196.583C780.916 188.39 784.146 180.373 786.567 172.785C797.576 175.877 821.726 182.946 821.726 196.542C821.726 210.266 798.551 217.402 786.954 220.733ZM776.682 272.239C764.471 279.088 746.332 262.694 737.975 254.904C743.52 249.028 749.06 242.198 754.467 234.613C763.979 233.796 772.964 232.459 781.113 230.634C783.782 241.092 788.947 265.36 776.682 272.239ZM686.664 272.142C674.452 265.318 680.033 241.886 682.834 230.998C690.892 232.726 699.813 233.968 709.347 234.717C714.789 242.139 720.49 248.961 726.235 254.935C719.137 261.588 698.933 278.996 686.664 272.142ZM641.793 196.542C641.793 182.767 665.799 175.749 677.059 172.665C679.521 180.424 682.751 188.537 686.648 196.741C682.7 205.067 679.425 213.308 676.94 221.159C666.203 218.181 641.793 210.326 641.793 196.542ZM686.533 121.354C698.796 114.477 717.822 131.226 725.962 138.765C720.246 144.712 714.598 151.483 709.202 158.862C699.949 159.693 691.091 161.027 682.949 162.815C679.894 150.959 674.284 128.224 686.533 121.354ZM760.479 167.713C766.757 168.481 772.771 169.502 778.418 170.751C776.723 176.016 774.61 181.522 772.121 187.166C768.514 180.534 764.641 174.034 760.479 167.713ZM731.853 144.585C735.73 148.654 739.612 153.198 743.432 158.128C735.685 157.772 727.925 157.771 720.178 158.122C724.001 153.238 727.917 148.701 731.853 144.585ZM691.47 187.16C689.023 181.536 686.929 176.006 685.219 170.665C690.832 169.448 696.818 168.453 703.055 167.698C698.881 174.005 695.015 180.502 691.47 187.16ZM703.234 225.967C696.791 225.271 690.714 224.326 685.103 223.143C686.84 217.708 688.98 212.059 691.48 206.313C695.074 213.041 698.999 219.6 703.234 225.967ZM732.086 249.075C728.103 244.91 724.129 240.303 720.249 235.349C728.04 235.645 735.846 235.645 743.636 235.309C739.805 240.354 735.936 244.967 732.086 249.075ZM772.201 206.021C774.831 211.829 777.048 217.447 778.809 222.79C773.104 224.052 766.945 225.068 760.456 225.822C764.648 219.381 768.583 212.78 772.201 206.021ZM749.777 226.809C737.859 227.634 725.868 227.625 713.947 226.876C707.173 217.289 701.143 207.206 695.938 196.738C701.118 186.292 707.104 176.229 713.846 166.656C725.775 165.782 737.779 165.78 749.708 166.661C756.392 176.233 762.369 186.27 767.67 196.622C762.432 207.063 756.415 217.147 749.777 226.809ZM776.553 121.112C788.819 127.967 783.359 152.313 780.68 162.899C772.517 161.074 763.653 159.716 754.374 158.872C748.967 151.413 743.366 144.631 737.743 138.761C745.987 131.06 764.406 114.324 776.553 121.112Z" fill="#E03C8A"/>
</g>
<path d="M87.3206 126.624C87.5913 126.624 87.7459 126.663 87.7846 126.74C87.8619 126.779 87.9006 126.933 87.9006 127.204V137.18C87.9006 137.451 87.9199 137.625 87.9586 137.702C88.0359 137.741 88.2099 137.76 88.4806 137.76H109.013C109.283 137.76 109.438 137.741 109.477 137.702C109.554 137.625 109.593 137.451 109.593 137.18V127.204C109.593 126.933 109.612 126.779 109.651 126.74C109.728 126.663 109.902 126.624 110.173 126.624H112.203C112.473 126.624 112.628 126.663 112.667 126.74C112.744 126.779 112.783 126.933 112.783 127.204V153.42C112.783 153.691 112.744 153.865 112.667 153.942C112.628 153.981 112.473 154 112.203 154H110.173C109.902 154 109.728 153.981 109.651 153.942C109.612 153.865 109.593 153.691 109.593 153.42V144.14C109.593 143.869 109.554 143.715 109.477 143.676C109.438 143.599 109.283 143.56 109.013 143.56H88.4806C88.2099 143.56 88.0359 143.599 87.9586 143.676C87.9199 143.715 87.9006 143.869 87.9006 144.14V153.42C87.9006 153.691 87.8619 153.865 87.7846 153.942C87.7459 153.981 87.5913 154 87.3206 154H85.2906C85.0199 154 84.8459 153.981 84.7686 153.942C84.7299 153.865 84.7106 153.691 84.7106 153.42V127.204C84.7106 126.933 84.7299 126.779 84.7686 126.74C84.8459 126.663 85.0199 126.624 85.2906 126.624H87.3206ZM131.645 132.888C129.557 132.888 127.817 132.927 126.425 133.004C125.033 133.081 123.893 133.294 123.003 133.642C122.114 133.99 121.457 134.512 121.031 135.208C120.606 135.904 120.335 136.89 120.219 138.166H142.085C142.627 138.166 142.955 138.224 143.071 138.34C143.187 138.456 143.245 138.785 143.245 139.326V141.066C143.245 141.607 143.187 141.936 143.071 142.052C142.955 142.168 142.627 142.226 142.085 142.226H120.219C120.335 143.502 120.606 144.488 121.031 145.184C121.457 145.88 122.114 146.402 123.003 146.75C123.893 147.098 125.033 147.311 126.425 147.388C127.817 147.465 129.557 147.504 131.645 147.504H143.245C143.787 147.504 144.115 147.562 144.231 147.678C144.347 147.794 144.405 148.123 144.405 148.664V149.592C144.405 151.293 143.767 152.492 142.491 153.188C141.215 153.884 139.147 154.232 136.285 154.232H131.645C128.165 154.232 125.439 153.942 123.467 153.362C121.534 152.743 120.103 151.854 119.175 150.694C118.247 149.534 117.667 148.084 117.435 146.344C117.242 144.565 117.145 142.516 117.145 140.196C117.145 137.876 117.242 135.846 117.435 134.106C117.667 132.327 118.247 130.858 119.175 129.698C120.103 128.538 121.534 127.668 123.467 127.088C125.439 126.469 128.165 126.16 131.645 126.16H136.285C139.147 126.16 141.215 126.508 142.491 127.204C143.767 127.9 144.405 129.099 144.405 130.8V131.728C144.405 132.269 144.347 132.598 144.231 132.714C144.115 132.83 143.787 132.888 143.245 132.888H131.645ZM151.381 122.912C151.652 122.912 151.806 122.951 151.845 123.028C151.922 123.067 151.961 123.221 151.961 123.492V140.08C151.961 141.781 152.038 143.115 152.193 144.082C152.386 145.01 152.657 145.706 153.005 146.17C153.392 146.634 153.856 146.924 154.397 147.04C154.938 147.117 155.576 147.156 156.311 147.156H165.011C165.552 147.156 165.881 147.214 165.997 147.33C166.113 147.446 166.171 147.775 166.171 148.316V152.956C166.171 153.497 166.113 153.826 165.997 153.942C165.881 154.058 165.552 154.116 165.011 154.116H156.311C154.455 154.116 153.005 153.826 151.961 153.246C150.956 152.627 150.221 151.738 149.757 150.578C149.293 149.418 149.003 147.968 148.887 146.228C148.81 144.449 148.771 142.4 148.771 140.08V123.492C148.771 123.221 148.79 123.067 148.829 123.028C148.906 122.951 149.08 122.912 149.351 122.912H151.381ZM171.432 122.912C171.703 122.912 171.857 122.951 171.896 123.028C171.973 123.067 172.012 123.221 172.012 123.492V140.08C172.012 141.781 172.089 143.115 172.244 144.082C172.437 145.01 172.708 145.706 173.056 146.17C173.443 146.634 173.907 146.924 174.448 147.04C174.989 147.117 175.627 147.156 176.362 147.156H185.062C185.603 147.156 185.932 147.214 186.048 147.33C186.164 147.446 186.222 147.775 186.222 148.316V152.956C186.222 153.497 186.164 153.826 186.048 153.942C185.932 154.058 185.603 154.116 185.062 154.116H176.362C174.506 154.116 173.056 153.826 172.012 153.246C171.007 152.627 170.272 151.738 169.808 150.578C169.344 149.418 169.054 147.968 168.938 146.228C168.861 144.449 168.822 142.4 168.822 140.08V123.492C168.822 123.221 168.841 123.067 168.88 123.028C168.957 122.951 169.131 122.912 169.402 122.912H171.432ZM218.136 140.196C218.136 142.516 218.02 144.565 217.788 146.344C217.594 148.123 217.034 149.611 216.106 150.81C215.178 152.009 213.728 152.917 211.756 153.536C209.822 154.155 207.116 154.464 203.636 154.464C200.156 154.464 197.43 154.155 195.458 153.536C193.524 152.917 192.094 152.009 191.166 150.81C190.238 149.611 189.658 148.123 189.426 146.344C189.232 144.565 189.136 142.516 189.136 140.196C189.136 137.876 189.232 135.827 189.426 134.048C189.658 132.269 190.238 130.781 191.166 129.582C192.094 128.383 193.524 127.475 195.458 126.856C197.43 126.237 200.156 125.928 203.636 125.928C207.116 125.928 209.822 126.237 211.756 126.856C213.728 127.475 215.178 128.383 216.106 129.582C217.034 130.781 217.594 132.269 217.788 134.048C218.02 135.827 218.136 137.876 218.136 140.196ZM192.036 140.196C192.036 141.936 192.19 143.309 192.5 144.314C192.848 145.281 193.447 145.996 194.298 146.46C195.187 146.924 196.386 147.214 197.894 147.33C199.402 147.446 201.316 147.504 203.636 147.504C205.956 147.504 207.85 147.446 209.32 147.33C210.828 147.214 212.007 146.924 212.858 146.46C213.747 145.996 214.366 145.281 214.714 144.314C215.062 143.309 215.236 141.936 215.236 140.196C215.236 138.456 215.062 137.103 214.714 136.136C214.366 135.131 213.747 134.396 212.858 133.932C212.007 133.468 210.828 133.178 209.32 133.062C207.85 132.946 205.956 132.888 203.636 132.888C201.316 132.888 199.402 132.946 197.894 133.062C196.386 133.178 195.187 133.468 194.298 133.932C193.447 134.396 192.848 135.131 192.5 136.136C192.19 137.103 192.036 138.456 192.036 140.196ZM280.043 140.312C279.231 143.753 278.535 146.421 277.955 148.316C277.414 150.211 276.873 151.622 276.331 152.55C275.829 153.439 275.268 153.981 274.649 154.174C274.069 154.367 273.354 154.464 272.503 154.464C271.614 154.464 270.879 154.367 270.299 154.174C269.719 153.981 269.159 153.439 268.617 152.55C268.115 151.622 267.573 150.211 266.993 148.316C266.452 146.421 265.775 143.753 264.963 140.312C264.654 139.075 264.364 138.05 264.093 137.238C263.861 136.426 263.591 135.788 263.281 135.324C262.972 134.821 262.605 134.473 262.179 134.28C261.793 134.087 261.309 133.99 260.729 133.99C260.149 133.99 259.647 134.087 259.221 134.28C258.835 134.473 258.487 134.821 258.177 135.324C257.868 135.788 257.578 136.426 257.307 137.238C257.075 138.05 256.805 139.075 256.495 140.312C255.683 143.753 254.987 146.421 254.407 148.316C253.866 150.211 253.325 151.622 252.783 152.55C252.281 153.439 251.72 153.981 251.101 154.174C250.521 154.367 249.806 154.464 248.955 154.464C248.066 154.464 247.331 154.367 246.751 154.174C246.171 153.981 245.611 153.439 245.069 152.55C244.567 151.622 244.025 150.211 243.445 148.316C242.904 146.421 242.227 143.753 241.415 140.312L238.225 127.146C238.148 126.914 238.148 126.779 238.225 126.74C238.341 126.663 238.496 126.624 238.689 126.624H240.777C241.009 126.624 241.164 126.663 241.241 126.74C241.357 126.779 241.454 126.914 241.531 127.146L244.721 140.428C245.069 141.936 245.379 143.115 245.649 143.966C245.959 144.817 246.268 145.455 246.577 145.88C246.887 146.305 247.235 146.576 247.621 146.692C248.008 146.769 248.491 146.808 249.071 146.808C249.651 146.808 250.115 146.769 250.463 146.692C250.85 146.576 251.179 146.305 251.449 145.88C251.72 145.455 251.971 144.817 252.203 143.966C252.474 143.115 252.803 141.936 253.189 140.428C253.924 137.451 254.543 135.073 255.045 133.294C255.548 131.477 256.051 130.085 256.553 129.118C257.056 128.151 257.617 127.513 258.235 127.204C258.893 126.895 259.724 126.74 260.729 126.74C261.735 126.74 262.547 126.895 263.165 127.204C263.823 127.513 264.403 128.151 264.905 129.118C265.408 130.085 265.911 131.477 266.413 133.294C266.916 135.073 267.535 137.451 268.269 140.428C268.656 141.936 268.965 143.115 269.197 143.966C269.468 144.817 269.739 145.455 270.009 145.88C270.28 146.305 270.589 146.576 270.937 146.692C271.324 146.769 271.807 146.808 272.387 146.808C272.967 146.808 273.451 146.769 273.837 146.692C274.224 146.576 274.572 146.305 274.881 145.88C275.191 145.455 275.481 144.817 275.751 143.966C276.061 143.115 276.389 141.936 276.737 140.428L279.927 127.146C280.005 126.914 280.082 126.779 280.159 126.74C280.275 126.663 280.449 126.624 280.681 126.624H282.769C282.963 126.624 283.098 126.663 283.175 126.74C283.291 126.779 283.311 126.914 283.233 127.146L280.043 140.312ZM314.934 140.196C314.934 142.516 314.818 144.565 314.586 146.344C314.393 148.123 313.832 149.611 312.904 150.81C311.976 152.009 310.526 152.917 308.554 153.536C306.621 154.155 303.914 154.464 300.434 154.464C296.954 154.464 294.228 154.155 292.256 153.536C290.323 152.917 288.892 152.009 287.964 150.81C287.036 149.611 286.456 148.123 286.224 146.344C286.031 144.565 285.934 142.516 285.934 140.196C285.934 137.876 286.031 135.827 286.224 134.048C286.456 132.269 287.036 130.781 287.964 129.582C288.892 128.383 290.323 127.475 292.256 126.856C294.228 126.237 296.954 125.928 300.434 125.928C303.914 125.928 306.621 126.237 308.554 126.856C310.526 127.475 311.976 128.383 312.904 129.582C313.832 130.781 314.393 132.269 314.586 134.048C314.818 135.827 314.934 137.876 314.934 140.196ZM288.834 140.196C288.834 141.936 288.989 143.309 289.298 144.314C289.646 145.281 290.246 145.996 291.096 146.46C291.986 146.924 293.184 147.214 294.692 147.33C296.2 147.446 298.114 147.504 300.434 147.504C302.754 147.504 304.649 147.446 306.118 147.33C307.626 147.214 308.806 146.924 309.656 146.46C310.546 145.996 311.164 145.281 311.512 144.314C311.86 143.309 312.034 141.936 312.034 140.196C312.034 138.456 311.86 137.103 311.512 136.136C311.164 135.131 310.546 134.396 309.656 133.932C308.806 133.468 307.626 133.178 306.118 133.062C304.649 132.946 302.754 132.888 300.434 132.888C298.114 132.888 296.2 132.946 294.692 133.062C293.184 133.178 291.986 133.468 291.096 133.932C290.246 134.396 289.646 135.131 289.298 136.136C288.989 137.103 288.834 138.456 288.834 140.196ZM326.451 144.43C326.451 143.077 326.877 141.878 327.727 140.834C328.617 139.751 329.951 139.113 331.729 138.92L339.327 137.992C340.41 137.876 341.28 137.741 341.937 137.586C342.633 137.431 343.175 137.238 343.561 137.006C343.948 136.774 344.199 136.503 344.315 136.194C344.431 135.846 344.489 135.421 344.489 134.918C344.489 134.493 344.393 134.125 344.199 133.816C344.006 133.507 343.619 133.255 343.039 133.062C342.498 132.83 341.725 132.675 340.719 132.598C339.714 132.482 338.419 132.424 336.833 132.424H331.149C329.448 132.424 328.037 132.521 326.915 132.714C325.794 132.869 324.905 133.139 324.247 133.526C323.59 133.913 323.126 134.415 322.855 135.034C322.585 135.614 322.449 136.329 322.449 137.18V153.42C322.449 153.691 322.411 153.865 322.333 153.942C322.295 153.981 322.14 154 321.869 154H319.839C319.569 154 319.395 153.981 319.317 153.942C319.279 153.865 319.259 153.691 319.259 153.42V137.18C319.259 135.131 319.472 133.391 319.897 131.96C320.323 130.529 320.999 129.369 321.927 128.48C322.855 127.591 324.073 126.953 325.581 126.566C327.089 126.141 328.945 125.928 331.149 125.928H335.673C338.148 125.928 340.139 126.141 341.647 126.566C343.194 126.991 344.393 127.61 345.243 128.422C346.094 129.234 346.655 130.22 346.925 131.38C347.235 132.54 347.389 133.835 347.389 135.266C347.389 136.426 347.293 137.393 347.099 138.166C346.906 138.901 346.558 139.5 346.055 139.964C345.591 140.428 344.934 140.795 344.083 141.066C343.271 141.298 342.247 141.491 341.009 141.646L332.889 142.632C330.879 142.864 329.873 143.521 329.873 144.604C329.873 145.184 330.125 145.629 330.627 145.938C331.13 146.247 331.865 146.499 332.831 146.692L346.867 149.708C347.795 149.901 348.491 150.172 348.955 150.52C349.419 150.829 349.651 151.332 349.651 152.028C349.651 152.879 349.071 153.439 347.911 153.71C346.79 153.942 344.721 154.058 341.705 154.058H335.963C332.793 154.058 330.415 153.323 328.829 151.854C327.244 150.385 326.451 147.91 326.451 144.43ZM355.684 122.912C355.955 122.912 356.109 122.951 356.148 123.028C356.225 123.067 356.264 123.221 356.264 123.492V140.08C356.264 141.781 356.341 143.115 356.496 144.082C356.689 145.01 356.96 145.706 357.308 146.17C357.695 146.634 358.159 146.924 358.7 147.04C359.241 147.117 359.879 147.156 360.614 147.156H369.314C369.855 147.156 370.184 147.214 370.3 147.33C370.416 147.446 370.474 147.775 370.474 148.316V152.956C370.474 153.497 370.416 153.826 370.3 153.942C370.184 154.058 369.855 154.116 369.314 154.116H360.614C358.758 154.116 357.308 153.826 356.264 153.246C355.259 152.627 354.524 151.738 354.06 150.578C353.596 149.418 353.306 147.968 353.19 146.228C353.113 144.449 353.074 142.4 353.074 140.08V123.492C353.074 123.221 353.093 123.067 353.132 123.028C353.209 122.951 353.383 122.912 353.654 122.912H355.684ZM400.357 140.196C400.357 142.516 400.241 144.546 400.009 146.286C399.816 148.026 399.255 149.476 398.327 150.636C397.399 151.796 395.949 152.666 393.977 153.246C392.044 153.826 389.337 154.116 385.857 154.116H375.417C374.876 154.116 374.547 154.058 374.431 153.942C374.315 153.826 374.257 153.497 374.257 152.956V127.436C374.257 126.895 374.315 126.566 374.431 126.45C374.547 126.334 374.876 126.276 375.417 126.276H385.857C389.337 126.276 392.044 126.566 393.977 127.146C395.949 127.726 397.399 128.596 398.327 129.756C399.255 130.916 399.816 132.366 400.009 134.106C400.241 135.846 400.357 137.876 400.357 140.196ZM385.857 147.156C388.177 147.156 390.072 147.117 391.541 147.04C393.049 146.924 394.229 146.653 395.079 146.228C395.969 145.764 396.587 145.068 396.935 144.14C397.283 143.212 397.457 141.897 397.457 140.196C397.457 138.495 397.283 137.18 396.935 136.252C396.587 135.324 395.969 134.647 395.079 134.222C394.229 133.758 393.049 133.487 391.541 133.41C390.072 133.294 388.177 133.236 385.857 133.236H377.737C377.467 133.236 377.293 133.275 377.215 133.352C377.177 133.391 377.157 133.545 377.157 133.816V146.576C377.157 146.847 377.177 147.021 377.215 147.098C377.293 147.137 377.467 147.156 377.737 147.156H385.857ZM403.28 155.16C403.551 155.121 403.802 155.063 404.034 154.986C404.266 154.909 404.44 154.754 404.556 154.522C404.711 154.329 404.827 154.019 404.904 153.594C404.981 153.13 405.02 152.492 405.02 151.68V149.36C405.02 148.78 405.039 148.335 405.078 148.026C405.117 147.717 405.194 147.504 405.31 147.388C405.465 147.233 405.697 147.137 406.006 147.098C406.315 147.059 406.76 147.04 407.34 147.04H409.66C410.24 147.04 410.685 147.059 410.994 147.098C411.303 147.137 411.516 147.233 411.632 147.388C411.787 147.504 411.883 147.717 411.922 148.026C411.961 148.335 411.98 148.78 411.98 149.36V149.94C411.98 150.907 411.748 151.738 411.284 152.434C410.82 153.091 410.182 153.633 409.37 154.058C408.558 154.522 407.63 154.87 406.586 155.102C405.542 155.373 404.44 155.585 403.28 155.74V155.16Z" fill="white"/>
<path d="M437.763 126.624C438.034 126.624 438.188 126.663 438.227 126.74C438.304 126.779 438.343 126.933 438.343 127.204V153.42C438.343 153.691 438.304 153.865 438.227 153.942C438.188 153.981 438.034 154 437.763 154H435.443C435.172 154 434.998 153.981 434.921 153.942C434.882 153.865 434.863 153.691 434.863 153.42V127.204C434.863 126.933 434.882 126.779 434.921 126.74C434.998 126.663 435.172 126.624 435.443 126.624H437.763ZM458.376 123.028V123.376C458.376 123.569 458.337 123.705 458.26 123.782C458.182 123.821 457.989 123.84 457.68 123.84H454.78C454.393 123.84 454.103 123.801 453.91 123.724C453.755 123.647 453.562 123.453 453.33 123.144L449.85 118.794C449.734 118.639 449.676 118.504 449.676 118.388C449.676 118.156 449.869 118.04 450.256 118.04H456.868C457.254 118.04 457.544 118.079 457.738 118.156C457.931 118.233 458.047 118.465 458.086 118.852L458.376 123.028ZM510.634 126.16C512.49 126.16 513.92 126.469 514.926 127.088C515.97 127.668 516.724 128.538 517.188 129.698C517.652 130.858 517.922 132.327 518 134.106C518.116 135.846 518.174 137.876 518.174 140.196V153.42C518.174 153.691 518.135 153.865 518.058 153.942C518.019 153.981 517.864 154 517.594 154H515.854C515.583 154 515.409 153.981 515.332 153.942C515.293 153.865 515.274 153.691 515.274 153.42V140.196C515.274 138.649 515.158 137.431 514.926 136.542C514.732 135.653 514.423 135.015 513.998 134.628C513.611 134.203 513.128 133.951 512.548 133.874C512.006 133.758 511.368 133.7 510.634 133.7C509.783 133.7 509.068 133.777 508.488 133.932C507.908 134.048 507.405 134.338 506.98 134.802C506.554 135.227 506.168 135.865 505.82 136.716C505.472 137.528 505.085 138.611 504.66 139.964C503.616 143.367 502.746 146.035 502.05 147.968C501.392 149.863 500.754 151.274 500.136 152.202C499.556 153.13 498.898 153.71 498.164 153.942C497.468 154.135 496.54 154.232 495.38 154.232C494.22 154.232 493.272 154.135 492.538 153.942C491.842 153.71 491.184 153.13 490.566 152.202C489.986 151.274 489.348 149.863 488.652 147.968C487.994 146.035 487.144 143.367 486.1 139.964C485.674 138.611 485.288 137.528 484.94 136.716C484.592 135.865 484.205 135.227 483.78 134.802C483.354 134.338 482.852 134.048 482.272 133.932C481.692 133.777 480.976 133.7 480.126 133.7C479.391 133.7 478.734 133.758 478.154 133.874C477.612 133.951 477.129 134.203 476.704 134.628C476.317 135.015 476.008 135.653 475.776 136.542C475.582 137.431 475.486 138.649 475.486 140.196V153.42C475.486 153.691 475.447 153.865 475.37 153.942C475.331 153.981 475.176 154 474.906 154H473.166C472.895 154 472.721 153.981 472.644 153.942C472.605 153.865 472.586 153.691 472.586 153.42V140.196C472.586 137.876 472.624 135.846 472.702 134.106C472.818 132.327 473.108 130.858 473.572 129.698C474.036 128.538 474.77 127.668 475.776 127.088C476.82 126.469 478.27 126.16 480.126 126.16C481.286 126.16 482.252 126.295 483.026 126.566C483.838 126.837 484.553 127.455 485.172 128.422C485.829 129.35 486.467 130.742 487.086 132.598C487.743 134.415 488.516 136.909 489.406 140.08C489.87 141.704 490.276 142.961 490.624 143.85C490.972 144.739 491.339 145.397 491.726 145.822C492.151 146.247 492.634 146.499 493.176 146.576C493.756 146.653 494.49 146.692 495.38 146.692C496.23 146.692 496.946 146.653 497.526 146.576C498.106 146.499 498.589 146.247 498.976 145.822C499.401 145.397 499.788 144.739 500.136 143.85C500.484 142.961 500.89 141.704 501.354 140.08C502.204 136.909 502.958 134.415 503.616 132.598C504.273 130.742 504.911 129.35 505.53 128.422C506.187 127.455 506.902 126.837 507.676 126.566C508.488 126.295 509.474 126.16 510.634 126.16ZM543.681 137.76H545.479C546.446 137.76 547.277 137.702 547.973 137.586C548.669 137.47 549.268 137.257 549.771 136.948C550.312 136.6 550.796 136.136 551.221 135.556C551.646 134.937 552.072 134.145 552.497 133.178C553.116 131.786 553.657 130.645 554.121 129.756C554.585 128.867 555.107 128.171 555.687 127.668C556.306 127.127 557.021 126.759 557.833 126.566C558.684 126.373 559.805 126.276 561.197 126.276H562.879C564.58 126.276 565.779 126.721 566.475 127.61C567.171 128.499 567.519 129.795 567.519 131.496V131.844C567.519 132.385 567.461 132.714 567.345 132.83C567.229 132.946 566.9 133.004 566.359 133.004H560.617C559.534 133.004 558.606 133.139 557.833 133.41C557.06 133.642 556.364 134.048 555.745 134.628C555.126 135.169 554.566 135.904 554.063 136.832C553.56 137.721 553.019 138.843 552.439 140.196C553.019 141.549 553.56 142.69 554.063 143.618C554.566 144.507 555.126 145.242 555.745 145.822C556.364 146.363 557.06 146.769 557.833 147.04C558.606 147.272 559.534 147.388 560.617 147.388H566.359C566.9 147.388 567.229 147.446 567.345 147.562C567.461 147.678 567.519 148.007 567.519 148.548V152.956C567.519 153.497 567.461 153.826 567.345 153.942C567.229 154.058 566.9 154.116 566.359 154.116H561.197C559.805 154.116 558.684 154 557.833 153.768C557.021 153.536 556.306 153.149 555.687 152.608C555.107 152.067 554.566 151.351 554.063 150.462C553.599 149.534 553.058 148.393 552.439 147.04C551.975 146.035 551.53 145.223 551.105 144.604C550.68 143.985 550.216 143.521 549.713 143.212C549.21 142.864 548.611 142.651 547.915 142.574C547.258 142.458 546.446 142.4 545.479 142.4H543.681V153.536C543.681 153.807 543.642 153.961 543.565 154C543.526 154.077 543.372 154.116 543.101 154.116H541.071C540.8 154.116 540.626 154.077 540.549 154C540.51 153.961 540.491 153.807 540.491 153.536V122.448C540.491 122.177 540.51 122.023 540.549 121.984C540.626 121.907 540.8 121.868 541.071 121.868H543.101C543.372 121.868 543.526 121.907 543.565 121.984C543.642 122.023 543.681 122.177 543.681 122.448V137.76ZM600.007 140.196C600.007 142.516 599.891 144.565 599.659 146.344C599.465 148.123 598.905 149.611 597.977 150.81C597.049 152.009 595.599 152.917 593.627 153.536C591.693 154.155 588.987 154.464 585.507 154.464C582.027 154.464 579.301 154.155 577.329 153.536C575.395 152.917 573.965 152.009 573.037 150.81C572.109 149.611 571.529 148.123 571.297 146.344C571.103 144.565 571.007 142.516 571.007 140.196C571.007 137.876 571.103 135.827 571.297 134.048C571.529 132.269 572.109 130.781 573.037 129.582C573.965 128.383 575.395 127.475 577.329 126.856C579.301 126.237 582.027 125.928 585.507 125.928C588.987 125.928 591.693 126.237 593.627 126.856C595.599 127.475 597.049 128.383 597.977 129.582C598.905 130.781 599.465 132.269 599.659 134.048C599.891 135.827 600.007 137.876 600.007 140.196ZM573.907 140.196C573.907 141.936 574.061 143.309 574.371 144.314C574.719 145.281 575.318 145.996 576.169 146.46C577.058 146.924 578.257 147.214 579.765 147.33C581.273 147.446 583.187 147.504 585.507 147.504C587.827 147.504 589.721 147.446 591.191 147.33C592.699 147.214 593.878 146.924 594.729 146.46C595.618 145.996 596.237 145.281 596.585 144.314C596.933 143.309 597.107 141.936 597.107 140.196C597.107 138.456 596.933 137.103 596.585 136.136C596.237 135.131 595.618 134.396 594.729 133.932C593.878 133.468 592.699 133.178 591.191 133.062C589.721 132.946 587.827 132.888 585.507 132.888C583.187 132.888 581.273 132.946 579.765 133.062C578.257 133.178 577.058 133.468 576.169 133.932C575.318 134.396 574.719 135.131 574.371 136.136C574.061 137.103 573.907 138.456 573.907 140.196ZM612.162 154.116C610.692 154.116 609.436 154.058 608.392 153.942C607.386 153.826 606.555 153.633 605.898 153.362C605.279 153.053 604.815 152.647 604.506 152.144C604.196 151.603 604.042 150.907 604.042 150.056V148.896C604.042 148.355 604.1 148.026 604.216 147.91C604.332 147.794 604.66 147.736 605.202 147.736H618.542C620.552 147.736 622.196 147.697 623.472 147.62C624.786 147.543 625.792 147.407 626.488 147.214C627.222 147.021 627.725 146.769 627.996 146.46C628.266 146.112 628.402 145.687 628.402 145.184C628.402 144.179 627.512 143.483 625.734 143.096C623.955 142.709 621.171 142.4 617.382 142.168C615.371 142.052 613.534 141.917 611.872 141.762C610.248 141.569 608.836 141.24 607.638 140.776C606.478 140.273 605.569 139.539 604.912 138.572C604.254 137.605 603.926 136.252 603.926 134.512C603.926 133.081 604.08 131.844 604.39 130.8C604.699 129.756 605.279 128.905 606.13 128.248C607.019 127.552 608.256 127.049 609.842 126.74C611.466 126.431 613.592 126.276 616.222 126.276H622.022C624.922 126.276 626.99 126.624 628.228 127.32C629.504 127.977 630.142 129.176 630.142 130.916V131.612C630.142 132.153 630.084 132.482 629.968 132.598C629.852 132.714 629.523 132.772 628.982 132.772H616.222C614.25 132.772 612.684 132.849 611.524 133.004C610.364 133.12 609.474 133.313 608.856 133.584C608.276 133.816 607.889 134.106 607.696 134.454C607.502 134.763 607.406 135.092 607.406 135.44C607.406 136.213 608.16 136.813 609.668 137.238C611.214 137.625 613.786 137.915 617.382 138.108C619.74 138.224 621.828 138.379 623.646 138.572C625.463 138.727 626.971 139.055 628.17 139.558C629.407 140.061 630.335 140.815 630.954 141.82C631.572 142.825 631.882 144.256 631.882 146.112C631.882 147.581 631.669 148.819 631.244 149.824C630.857 150.829 630.142 151.661 629.098 152.318C628.092 152.937 626.72 153.401 624.98 153.71C623.278 153.981 621.132 154.116 618.542 154.116H612.162ZM647.24 154C646.97 154 646.796 153.981 646.718 153.942C646.68 153.865 646.66 153.691 646.66 153.42V133.816C646.66 133.545 646.622 133.391 646.544 133.352C646.506 133.275 646.351 133.236 646.08 133.236H635.35C634.809 133.236 634.48 133.178 634.364 133.062C634.248 132.946 634.19 132.617 634.19 132.076V131.264C634.19 130.413 634.306 129.698 634.538 129.118C634.809 128.499 635.234 127.997 635.814 127.61C636.394 127.185 637.168 126.875 638.134 126.682C639.101 126.489 640.3 126.392 641.73 126.392H655.07C657.893 126.392 659.846 126.798 660.928 127.61C662.05 128.383 662.61 129.601 662.61 131.264V132.076C662.61 132.617 662.552 132.946 662.436 133.062C662.32 133.178 661.992 133.236 661.45 133.236H650.72C650.45 133.236 650.276 133.275 650.198 133.352C650.16 133.391 650.14 133.545 650.14 133.816V153.42C650.14 153.691 650.102 153.865 650.024 153.942C649.986 153.981 649.831 154 649.56 154H647.24ZM679.127 158.292C678.856 158.292 678.682 158.253 678.605 158.176C678.566 158.137 678.547 157.983 678.547 157.712V148.606C678.547 148.335 678.508 148.181 678.431 148.142C678.392 148.065 678.237 148.026 677.967 148.026C674.989 148.026 672.65 147.717 670.949 147.098C669.286 146.479 668.049 145.571 667.237 144.372C666.425 143.173 665.922 141.723 665.729 140.022C665.574 138.282 665.497 136.31 665.497 134.106V127.204C665.497 126.933 665.516 126.779 665.555 126.74C665.632 126.663 665.806 126.624 666.077 126.624H668.107C668.377 126.624 668.532 126.663 668.571 126.74C668.648 126.779 668.687 126.933 668.687 127.204V134.686C668.687 136.426 668.841 137.799 669.151 138.804C669.46 139.771 670.021 140.525 670.833 141.066C671.683 141.569 672.843 141.897 674.313 142.052C675.782 142.168 677.677 142.226 679.997 142.226C682.317 142.226 684.211 142.168 685.681 142.052C687.15 141.897 688.291 141.569 689.103 141.066C689.953 140.525 690.533 139.771 690.843 138.804C691.152 137.799 691.307 136.426 691.307 134.686V127.204C691.307 126.933 691.326 126.779 691.365 126.74C691.442 126.663 691.616 126.624 691.887 126.624H693.917C694.187 126.624 694.342 126.663 694.381 126.74C694.458 126.779 694.497 126.933 694.497 127.204V134.106C694.497 136.31 694.4 138.282 694.207 140.022C694.013 141.723 693.511 143.173 692.699 144.372C691.887 145.532 690.63 146.441 688.929 147.098C687.266 147.717 684.965 148.026 682.027 148.026C681.756 148.026 681.582 148.065 681.505 148.142C681.466 148.181 681.447 148.335 681.447 148.606V157.712C681.447 157.983 681.408 158.137 681.331 158.176C681.292 158.253 681.137 158.292 680.867 158.292H679.127ZM700.011 154C699.741 154 699.567 153.981 699.489 153.942C699.451 153.865 699.431 153.691 699.431 153.42V140.196C699.431 137.876 699.547 135.827 699.779 134.048C700.05 132.269 700.649 130.781 701.577 129.582C702.544 128.383 703.936 127.475 705.753 126.856C707.609 126.237 710.142 125.928 713.351 125.928C716.522 125.928 719.035 126.237 720.891 126.856C722.747 127.475 724.139 128.383 725.067 129.582C726.034 130.781 726.633 132.269 726.865 134.048C727.136 135.827 727.271 137.876 727.271 140.196V153.42C727.271 153.691 727.233 153.865 727.155 153.942C727.117 153.981 726.962 154 726.691 154H724.951C724.681 154 724.507 153.981 724.429 153.942C724.391 153.865 724.371 153.691 724.371 153.42V147.852C724.371 147.581 724.333 147.427 724.255 147.388C724.217 147.311 724.062 147.272 723.791 147.272H702.911C702.641 147.272 702.467 147.311 702.389 147.388C702.351 147.427 702.331 147.581 702.331 147.852V153.42C702.331 153.691 702.293 153.865 702.215 153.942C702.177 153.981 702.022 154 701.751 154H700.011ZM702.331 141.472C702.331 141.704 702.351 141.859 702.389 141.936C702.467 142.013 702.641 142.052 702.911 142.052H723.791C724.062 142.052 724.217 142.033 724.255 141.994C724.333 141.917 724.371 141.743 724.371 141.472V140.196C724.371 138.456 724.197 137.103 723.849 136.136C723.54 135.169 722.96 134.454 722.109 133.99C721.297 133.487 720.176 133.178 718.745 133.062C717.315 132.946 715.517 132.888 713.351 132.888C711.186 132.888 709.388 132.946 707.957 133.062C706.527 133.178 705.386 133.487 704.535 133.99C703.723 134.454 703.143 135.169 702.795 136.136C702.486 137.103 702.331 138.456 702.331 140.196V141.472Z" fill="#E03C8A"/>
<path opacity="0.8" d="M279.374 187V175.876C279.374 175.192 279.566 174.64 279.95 174.22C280.346 173.8 280.904 173.59 281.624 173.59C281.96 173.59 282.29 173.644 282.614 173.752C282.95 173.86 283.226 174.028 283.442 174.256L283.19 174.508C282.998 174.316 282.764 174.172 282.488 174.076C282.224 173.98 281.942 173.932 281.642 173.932C281.018 173.932 280.544 174.106 280.22 174.454C279.896 174.802 279.734 175.306 279.734 175.966V177.748V177.946V187H279.374ZM277.574 178.036V177.694H282.884V178.036H277.574ZM284.82 187V177.694H285.18V180.268L285.144 180.214C285.396 179.398 285.834 178.768 286.458 178.324C287.094 177.868 287.886 177.64 288.834 177.64V178C288.822 178 288.804 178 288.78 178C288.768 178 288.75 178 288.726 178C287.61 178 286.74 178.36 286.116 179.08C285.492 179.788 285.18 180.76 285.18 181.996V187H284.82ZM294.867 187.054C294.003 187.054 293.229 186.856 292.545 186.46C291.873 186.052 291.339 185.494 290.943 184.786C290.547 184.066 290.349 183.25 290.349 182.338C290.349 181.414 290.547 180.604 290.943 179.908C291.339 179.2 291.873 178.648 292.545 178.252C293.229 177.844 294.003 177.64 294.867 177.64C295.731 177.64 296.505 177.844 297.189 178.252C297.873 178.648 298.407 179.2 298.791 179.908C299.187 180.604 299.385 181.414 299.385 182.338C299.385 183.25 299.187 184.066 298.791 184.786C298.407 185.494 297.873 186.052 297.189 186.46C296.505 186.856 295.731 187.054 294.867 187.054ZM294.867 186.712C295.659 186.712 296.367 186.526 296.991 186.154C297.627 185.782 298.125 185.266 298.485 184.606C298.845 183.946 299.025 183.19 299.025 182.338C299.025 181.474 298.845 180.718 298.485 180.07C298.125 179.41 297.627 178.9 296.991 178.54C296.367 178.168 295.659 177.982 294.867 177.982C294.075 177.982 293.367 178.168 292.743 178.54C292.119 178.9 291.621 179.41 291.249 180.07C290.889 180.718 290.709 181.474 290.709 182.338C290.709 183.19 290.889 183.946 291.249 184.606C291.621 185.266 292.119 185.782 292.743 186.154C293.367 186.526 294.075 186.712 294.867 186.712ZM306.699 177.64C307.467 177.64 308.127 177.79 308.679 178.09C309.231 178.378 309.657 178.81 309.957 179.386C310.269 179.962 310.425 180.67 310.425 181.51V187H310.065V181.51C310.065 180.358 309.771 179.482 309.183 178.882C308.595 178.282 307.773 177.982 306.717 177.982C305.901 177.982 305.199 178.15 304.611 178.486C304.023 178.81 303.573 179.272 303.261 179.872C302.949 180.46 302.793 181.15 302.793 181.942V187H302.433V177.694H302.793V180.34L302.757 180.286C303.033 179.47 303.507 178.828 304.179 178.36C304.851 177.88 305.691 177.64 306.699 177.64ZM316.851 187.054C316.119 187.054 315.561 186.844 315.177 186.424C314.793 186.004 314.601 185.452 314.601 184.768V175.66H314.961V184.678C314.961 185.338 315.123 185.842 315.447 186.19C315.771 186.538 316.245 186.712 316.869 186.712C317.493 186.712 318.009 186.52 318.417 186.136L318.669 186.388C318.453 186.616 318.177 186.784 317.841 186.892C317.517 187 317.187 187.054 316.851 187.054ZM312.801 178.036V177.694H318.111V178.036H312.801ZM324.63 187.054C323.73 187.054 322.932 186.856 322.236 186.46C321.54 186.052 320.988 185.494 320.58 184.786C320.184 184.066 319.986 183.25 319.986 182.338C319.986 181.414 320.172 180.604 320.544 179.908C320.916 179.2 321.426 178.648 322.074 178.252C322.734 177.844 323.472 177.64 324.288 177.64C325.104 177.64 325.836 177.838 326.484 178.234C327.144 178.618 327.66 179.158 328.032 179.854C328.416 180.55 328.608 181.348 328.608 182.248C328.608 182.26 328.608 182.272 328.608 182.284C328.608 182.296 328.608 182.314 328.608 182.338H320.184V181.996H328.41L328.266 182.266C328.266 181.45 328.092 180.718 327.744 180.07C327.396 179.422 326.922 178.912 326.322 178.54C325.734 178.168 325.056 177.982 324.288 177.982C323.532 177.982 322.854 178.168 322.254 178.54C321.654 178.912 321.18 179.422 320.832 180.07C320.496 180.718 320.328 181.45 320.328 182.266V182.338C320.328 183.19 320.514 183.946 320.886 184.606C321.258 185.266 321.768 185.782 322.416 186.154C323.064 186.526 323.802 186.712 324.63 186.712C325.254 186.712 325.842 186.592 326.394 186.352C326.958 186.112 327.426 185.752 327.798 185.272L328.05 185.524C327.642 186.028 327.138 186.412 326.538 186.676C325.938 186.928 325.302 187.054 324.63 187.054ZM335.914 177.64C336.682 177.64 337.342 177.79 337.894 178.09C338.446 178.378 338.872 178.81 339.172 179.386C339.484 179.962 339.64 180.67 339.64 181.51V187H339.28V181.51C339.28 180.358 338.986 179.482 338.398 178.882C337.81 178.282 336.988 177.982 335.932 177.982C335.116 177.982 334.414 178.15 333.826 178.486C333.238 178.81 332.788 179.272 332.476 179.872C332.164 180.46 332.008 181.15 332.008 181.942V187H331.648V177.694H332.008V180.34L331.972 180.286C332.248 179.47 332.722 178.828 333.394 178.36C334.066 177.88 334.906 177.64 335.914 177.64ZM347.092 187.054C346.24 187.054 345.472 186.856 344.788 186.46C344.104 186.052 343.564 185.494 343.168 184.786C342.772 184.066 342.574 183.25 342.574 182.338C342.574 181.414 342.772 180.604 343.168 179.908C343.564 179.2 344.104 178.648 344.788 178.252C345.472 177.844 346.24 177.64 347.092 177.64C347.944 177.64 348.706 177.844 349.378 178.252C350.05 178.648 350.578 179.2 350.962 179.908C351.358 180.604 351.556 181.414 351.556 182.338C351.556 183.25 351.358 184.066 350.962 184.786C350.578 185.494 350.05 186.052 349.378 186.46C348.706 186.856 347.944 187.054 347.092 187.054ZM347.092 186.712C347.884 186.712 348.592 186.526 349.216 186.154C349.852 185.782 350.35 185.266 350.71 184.606C351.07 183.946 351.25 183.19 351.25 182.338C351.25 181.474 351.07 180.718 350.71 180.07C350.35 179.41 349.852 178.9 349.216 178.54C348.592 178.168 347.884 177.982 347.092 177.982C346.3 177.982 345.592 178.168 344.968 178.54C344.344 178.9 343.846 179.41 343.474 180.07C343.114 180.718 342.934 181.474 342.934 182.338C342.934 183.19 343.114 183.946 343.474 184.606C343.846 185.266 344.344 185.782 344.968 186.154C345.592 186.526 346.3 186.712 347.092 186.712ZM351.25 187V183.58L351.43 182.32L351.25 181.06V173.644H351.61V187H351.25ZM354.848 182.41V182.068H359.348V182.41H354.848ZM366.181 187.054C365.329 187.054 364.561 186.856 363.877 186.46C363.193 186.052 362.653 185.494 362.257 184.786C361.861 184.066 361.663 183.25 361.663 182.338C361.663 181.414 361.861 180.604 362.257 179.908C362.653 179.2 363.193 178.648 363.877 178.252C364.561 177.844 365.329 177.64 366.181 177.64C367.033 177.64 367.795 177.844 368.467 178.252C369.139 178.648 369.667 179.2 370.051 179.908C370.447 180.604 370.645 181.414 370.645 182.338C370.645 183.25 370.447 184.066 370.051 184.786C369.667 185.494 369.139 186.052 368.467 186.46C367.795 186.856 367.033 187.054 366.181 187.054ZM366.181 186.712C366.973 186.712 367.681 186.526 368.305 186.154C368.941 185.782 369.439 185.266 369.799 184.606C370.159 183.946 370.339 183.19 370.339 182.338C370.339 181.474 370.159 180.718 369.799 180.07C369.439 179.41 368.941 178.9 368.305 178.54C367.681 178.168 366.973 177.982 366.181 177.982C365.389 177.982 364.681 178.168 364.057 178.54C363.433 178.9 362.935 179.41 362.563 180.07C362.203 180.718 362.023 181.474 362.023 182.338C362.023 183.19 362.203 183.946 362.563 184.606C362.935 185.266 363.433 185.782 364.057 186.154C364.681 186.526 365.389 186.712 366.181 186.712ZM370.339 187V183.58L370.519 182.32L370.339 181.06V173.644H370.699V187H370.339ZM378.384 187.054C377.484 187.054 376.686 186.856 375.99 186.46C375.294 186.052 374.742 185.494 374.334 184.786C373.938 184.066 373.74 183.25 373.74 182.338C373.74 181.414 373.926 180.604 374.298 179.908C374.67 179.2 375.18 178.648 375.828 178.252C376.488 177.844 377.226 177.64 378.042 177.64C378.858 177.64 379.59 177.838 380.238 178.234C380.898 178.618 381.414 179.158 381.786 179.854C382.17 180.55 382.362 181.348 382.362 182.248C382.362 182.26 382.362 182.272 382.362 182.284C382.362 182.296 382.362 182.314 382.362 182.338H373.938V181.996H382.164L382.02 182.266C382.02 181.45 381.846 180.718 381.498 180.07C381.15 179.422 380.676 178.912 380.076 178.54C379.488 178.168 378.81 177.982 378.042 177.982C377.286 177.982 376.608 178.168 376.008 178.54C375.408 178.912 374.934 179.422 374.586 180.07C374.25 180.718 374.082 181.45 374.082 182.266V182.338C374.082 183.19 374.268 183.946 374.64 184.606C375.012 185.266 375.522 185.782 376.17 186.154C376.818 186.526 377.556 186.712 378.384 186.712C379.008 186.712 379.596 186.592 380.148 186.352C380.712 186.112 381.18 185.752 381.552 185.272L381.804 185.524C381.396 186.028 380.892 186.412 380.292 186.676C379.692 186.928 379.056 187.054 378.384 187.054ZM387.548 187L383.264 177.694H383.678L387.8 186.748H387.656L391.778 177.694H392.192L387.908 187H387.548ZM401.711 187.054C400.955 187.054 400.283 186.928 399.695 186.676C399.107 186.412 398.645 186.052 398.309 185.596C397.973 185.14 397.805 184.6 397.805 183.976C397.805 183.508 397.913 183.064 398.129 182.644C398.345 182.224 398.699 181.798 399.191 181.366C399.695 180.922 400.379 180.442 401.243 179.926C402.047 179.446 402.677 179.032 403.133 178.684C403.589 178.336 403.913 178 404.105 177.676C404.297 177.352 404.393 176.992 404.393 176.596C404.393 176.02 404.201 175.558 403.817 175.21C403.445 174.862 402.905 174.688 402.197 174.688C401.453 174.688 400.871 174.88 400.451 175.264C400.043 175.648 399.839 176.152 399.839 176.776C399.839 177.064 399.881 177.34 399.965 177.604C400.049 177.868 400.205 178.162 400.433 178.486C400.661 178.798 400.979 179.182 401.387 179.638L408.083 186.946L407.813 187.18L401.063 179.8C400.643 179.332 400.313 178.936 400.073 178.612C399.845 178.276 399.689 177.964 399.605 177.676C399.521 177.388 399.479 177.088 399.479 176.776C399.479 176.284 399.587 175.858 399.803 175.498C400.031 175.138 400.349 174.856 400.757 174.652C401.165 174.448 401.645 174.346 402.197 174.346C402.713 174.346 403.157 174.436 403.529 174.616C403.913 174.796 404.207 175.054 404.411 175.39C404.627 175.726 404.735 176.128 404.735 176.596C404.735 177.016 404.633 177.406 404.429 177.766C404.237 178.114 403.901 178.48 403.421 178.864C402.953 179.236 402.305 179.674 401.477 180.178C400.625 180.694 399.953 181.156 399.461 181.564C398.981 181.972 398.645 182.368 398.453 182.752C398.261 183.124 398.165 183.532 398.165 183.976C398.165 184.528 398.315 185.014 398.615 185.434C398.915 185.854 399.329 186.178 399.857 186.406C400.397 186.634 401.015 186.748 401.711 186.748C402.611 186.748 403.403 186.568 404.087 186.208C404.783 185.848 405.359 185.302 405.815 184.57C406.283 183.838 406.625 182.908 406.841 181.78L407.147 181.852C406.919 183.04 406.559 184.018 406.067 184.786C405.575 185.554 404.963 186.124 404.231 186.496C403.499 186.868 402.659 187.054 401.711 187.054ZM418.483 187.054C417.691 187.054 417.007 186.91 416.431 186.622C415.867 186.322 415.429 185.884 415.117 185.308C414.817 184.732 414.667 184.024 414.667 183.184V177.694H415.027V183.184C415.027 184.336 415.327 185.212 415.927 185.812C416.527 186.412 417.373 186.712 418.465 186.712C419.245 186.712 419.917 186.55 420.481 186.226C421.045 185.89 421.477 185.422 421.777 184.822C422.077 184.222 422.227 183.532 422.227 182.752V177.694H422.587V187H422.227V184.372L422.263 184.426C421.999 185.23 421.543 185.872 420.895 186.352C420.247 186.82 419.443 187.054 418.483 187.054ZM426.728 187V177.694H427.088V187H426.728ZM426.908 175.12C426.788 175.12 426.68 175.072 426.584 174.976C426.488 174.88 426.44 174.772 426.44 174.652C426.44 174.52 426.488 174.412 426.584 174.328C426.68 174.232 426.788 174.184 426.908 174.184C427.04 174.184 427.148 174.232 427.232 174.328C427.328 174.412 427.376 174.52 427.376 174.652C427.376 174.772 427.328 174.88 427.232 174.976C427.148 175.072 427.04 175.12 426.908 175.12ZM428.798 188.8L434.738 171.844H435.098L429.158 188.8H428.798ZM439.067 187.054C438.275 187.054 437.591 186.91 437.015 186.622C436.451 186.322 436.013 185.884 435.701 185.308C435.401 184.732 435.251 184.024 435.251 183.184V177.694H435.611V183.184C435.611 184.336 435.911 185.212 436.511 185.812C437.111 186.412 437.957 186.712 439.049 186.712C439.829 186.712 440.501 186.55 441.065 186.226C441.629 185.89 442.061 185.422 442.361 184.822C442.661 184.222 442.811 183.532 442.811 182.752V177.694H443.171V187H442.811V184.372L442.847 184.426C442.583 185.23 442.127 185.872 441.479 186.352C440.831 186.82 440.027 187.054 439.067 187.054ZM445.746 187L449.544 182.104L449.526 182.23L445.962 177.694H446.412L449.778 182.014H449.634L453 177.694H453.432L449.832 182.302L449.85 182.086L453.702 187H453.234L449.67 182.392H449.76L446.196 187H445.746ZM464.197 187.054C463.345 187.054 462.577 186.856 461.893 186.46C461.209 186.052 460.669 185.494 460.273 184.786C459.877 184.066 459.679 183.25 459.679 182.338C459.679 181.414 459.877 180.604 460.273 179.908C460.669 179.2 461.209 178.648 461.893 178.252C462.577 177.844 463.345 177.64 464.197 177.64C465.049 177.64 465.811 177.844 466.483 178.252C467.155 178.648 467.683 179.2 468.067 179.908C468.463 180.604 468.661 181.414 468.661 182.338C468.661 183.25 468.463 184.066 468.067 184.786C467.683 185.494 467.155 186.052 466.483 186.46C465.811 186.856 465.049 187.054 464.197 187.054ZM464.197 186.712C464.989 186.712 465.697 186.526 466.321 186.154C466.957 185.782 467.455 185.266 467.815 184.606C468.175 183.946 468.355 183.19 468.355 182.338C468.355 181.474 468.175 180.718 467.815 180.07C467.455 179.41 466.957 178.9 466.321 178.54C465.697 178.168 464.989 177.982 464.197 177.982C463.405 177.982 462.697 178.168 462.073 178.54C461.449 178.9 460.951 179.41 460.579 180.07C460.219 180.718 460.039 181.474 460.039 182.338C460.039 183.19 460.219 183.946 460.579 184.606C460.951 185.266 461.449 185.782 462.073 186.154C462.697 186.526 463.405 186.712 464.197 186.712ZM468.355 187V183.58L468.535 182.32L468.355 181.06V173.644H468.715V187H468.355ZM476.399 187.054C475.499 187.054 474.701 186.856 474.005 186.46C473.309 186.052 472.757 185.494 472.349 184.786C471.953 184.066 471.755 183.25 471.755 182.338C471.755 181.414 471.941 180.604 472.313 179.908C472.685 179.2 473.195 178.648 473.843 178.252C474.503 177.844 475.241 177.64 476.057 177.64C476.873 177.64 477.605 177.838 478.253 178.234C478.913 178.618 479.429 179.158 479.801 179.854C480.185 180.55 480.377 181.348 480.377 182.248C480.377 182.26 480.377 182.272 480.377 182.284C480.377 182.296 480.377 182.314 480.377 182.338H471.953V181.996H480.179L480.035 182.266C480.035 181.45 479.861 180.718 479.513 180.07C479.165 179.422 478.691 178.912 478.091 178.54C477.503 178.168 476.825 177.982 476.057 177.982C475.301 177.982 474.623 178.168 474.023 178.54C473.423 178.912 472.949 179.422 472.601 180.07C472.265 180.718 472.097 181.45 472.097 182.266V182.338C472.097 183.19 472.283 183.946 472.655 184.606C473.027 185.266 473.537 185.782 474.185 186.154C474.833 186.526 475.571 186.712 476.399 186.712C477.023 186.712 477.611 186.592 478.163 186.352C478.727 186.112 479.195 185.752 479.567 185.272L479.819 185.524C479.411 186.028 478.907 186.412 478.307 186.676C477.707 186.928 477.071 187.054 476.399 187.054ZM485.56 187.054C484.804 187.054 484.096 186.934 483.436 186.694C482.776 186.454 482.272 186.148 481.924 185.776L482.14 185.488C482.476 185.812 482.944 186.1 483.544 186.352C484.144 186.592 484.816 186.712 485.56 186.712C486.664 186.712 487.456 186.52 487.936 186.136C488.416 185.752 488.656 185.254 488.656 184.642C488.656 184.198 488.542 183.85 488.314 183.598C488.086 183.334 487.78 183.136 487.396 183.004C487.024 182.86 486.61 182.746 486.154 182.662C485.698 182.578 485.242 182.488 484.786 182.392C484.33 182.296 483.91 182.164 483.526 181.996C483.154 181.816 482.854 181.576 482.626 181.276C482.398 180.964 482.284 180.55 482.284 180.034C482.284 179.614 482.398 179.224 482.626 178.864C482.854 178.504 483.208 178.21 483.688 177.982C484.18 177.754 484.81 177.64 485.578 177.64C486.154 177.64 486.724 177.73 487.288 177.91C487.852 178.078 488.308 178.306 488.656 178.594L488.44 178.882C488.068 178.582 487.63 178.36 487.126 178.216C486.622 178.06 486.106 177.982 485.578 177.982C484.558 177.982 483.814 178.18 483.346 178.576C482.89 178.972 482.662 179.458 482.662 180.034C482.662 180.49 482.776 180.856 483.004 181.132C483.232 181.396 483.532 181.6 483.904 181.744C484.288 181.888 484.708 182.002 485.164 182.086C485.62 182.17 486.07 182.26 486.514 182.356C486.97 182.452 487.384 182.584 487.756 182.752C488.14 182.92 488.446 183.154 488.674 183.454C488.902 183.742 489.016 184.138 489.016 184.642C489.016 185.11 488.89 185.53 488.638 185.902C488.386 186.262 488.002 186.544 487.486 186.748C486.982 186.952 486.34 187.054 485.56 187.054ZM491.75 187V177.694H492.11V187H491.75ZM491.93 175.12C491.81 175.12 491.702 175.072 491.606 174.976C491.51 174.88 491.462 174.772 491.462 174.652C491.462 174.52 491.51 174.412 491.606 174.328C491.702 174.232 491.81 174.184 491.93 174.184C492.062 174.184 492.17 174.232 492.254 174.328C492.35 174.412 492.398 174.52 492.398 174.652C492.398 174.772 492.35 174.88 492.254 174.976C492.17 175.072 492.062 175.12 491.93 175.12ZM499.994 190.546C499.154 190.546 498.368 190.408 497.636 190.132C496.904 189.856 496.316 189.478 495.872 188.998L496.124 188.746C496.604 189.214 497.174 189.574 497.834 189.826C498.494 190.078 499.214 190.204 499.994 190.204C501.338 190.204 502.328 189.886 502.964 189.25C503.612 188.614 503.936 187.606 503.936 186.226V183.238L504.116 182.158L503.936 181.078V177.694H504.296V186.172C504.296 187.672 503.936 188.776 503.216 189.484C502.508 190.192 501.434 190.546 499.994 190.546ZM499.724 186.694C498.86 186.694 498.08 186.502 497.384 186.118C496.7 185.722 496.154 185.182 495.746 184.498C495.35 183.814 495.152 183.034 495.152 182.158C495.152 181.27 495.35 180.49 495.746 179.818C496.154 179.134 496.7 178.6 497.384 178.216C498.08 177.832 498.86 177.64 499.724 177.64C500.6 177.64 501.374 177.832 502.046 178.216C502.73 178.6 503.264 179.134 503.648 179.818C504.044 180.49 504.242 181.27 504.242 182.158C504.242 183.034 504.044 183.814 503.648 184.498C503.264 185.182 502.73 185.722 502.046 186.118C501.374 186.502 500.6 186.694 499.724 186.694ZM499.724 186.352C500.54 186.352 501.26 186.178 501.884 185.83C502.52 185.47 503.018 184.972 503.378 184.336C503.75 183.7 503.936 182.974 503.936 182.158C503.936 181.33 503.75 180.604 503.378 179.98C503.018 179.356 502.52 178.87 501.884 178.522C501.26 178.162 500.54 177.982 499.724 177.982C498.92 177.982 498.2 178.162 497.564 178.522C496.928 178.87 496.424 179.356 496.052 179.98C495.692 180.604 495.512 181.33 495.512 182.158C495.512 182.974 495.692 183.7 496.052 184.336C496.424 184.972 496.928 185.47 497.564 185.83C498.2 186.178 498.92 186.352 499.724 186.352ZM512.697 177.64C513.465 177.64 514.125 177.79 514.677 178.09C515.229 178.378 515.655 178.81 515.955 179.386C516.267 179.962 516.423 180.67 516.423 181.51V187H516.063V181.51C516.063 180.358 515.769 179.482 515.181 178.882C514.593 178.282 513.771 177.982 512.715 177.982C511.899 177.982 511.197 178.15 510.609 178.486C510.021 178.81 509.571 179.272 509.259 179.872C508.947 180.46 508.791 181.15 508.791 181.942V187H508.431V177.694H508.791V180.34L508.755 180.286C509.031 179.47 509.505 178.828 510.177 178.36C510.849 177.88 511.689 177.64 512.697 177.64ZM524.001 187.054C523.101 187.054 522.303 186.856 521.607 186.46C520.911 186.052 520.359 185.494 519.951 184.786C519.555 184.066 519.357 183.25 519.357 182.338C519.357 181.414 519.543 180.604 519.915 179.908C520.287 179.2 520.797 178.648 521.445 178.252C522.105 177.844 522.843 177.64 523.659 177.64C524.475 177.64 525.207 177.838 525.855 178.234C526.515 178.618 527.031 179.158 527.403 179.854C527.787 180.55 527.979 181.348 527.979 182.248C527.979 182.26 527.979 182.272 527.979 182.284C527.979 182.296 527.979 182.314 527.979 182.338H519.555V181.996H527.781L527.637 182.266C527.637 181.45 527.463 180.718 527.115 180.07C526.767 179.422 526.293 178.912 525.693 178.54C525.105 178.168 524.427 177.982 523.659 177.982C522.903 177.982 522.225 178.168 521.625 178.54C521.025 178.912 520.551 179.422 520.203 180.07C519.867 180.718 519.699 181.45 519.699 182.266V182.338C519.699 183.19 519.885 183.946 520.257 184.606C520.629 185.266 521.139 185.782 521.787 186.154C522.435 186.526 523.173 186.712 524.001 186.712C524.625 186.712 525.213 186.592 525.765 186.352C526.329 186.112 526.797 185.752 527.169 185.272L527.421 185.524C527.013 186.028 526.509 186.412 525.909 186.676C525.309 186.928 524.673 187.054 524.001 187.054ZM531.019 187V177.694H531.379V180.268L531.343 180.214C531.595 179.398 532.033 178.768 532.657 178.324C533.293 177.868 534.085 177.64 535.033 177.64V178C535.021 178 535.003 178 534.979 178C534.967 178 534.949 178 534.925 178C533.809 178 532.939 178.36 532.315 179.08C531.691 179.788 531.379 180.76 531.379 181.996V187H531.019Z" fill="#E03C8A"/>
</g>
<defs>
<clipPath id="clip0_459_615">
<rect width="812" height="281" rx="14" fill="white"/>
</clipPath>
</defs>
</svg>
