<svg width="812" height="281" viewBox="0 0 812 281" fill="none" xmlns="http://www.w3.org/2000/svg">
<g clip-path="url(#clip0_459_615)">
<rect width="812" height="282" fill="#1F2023"/>
<g opacity="0.1">
<path d="M749.328 196.589C749.328 187.188 741.463 179.566 731.76 179.566C722.058 179.566 714.191 187.188 714.191 196.589C714.191 205.991 722.058 213.612 731.76 213.612C741.463 213.612 749.328 205.991 749.328 196.589Z" fill="#E03C8A"/>
<path fill-rule="evenodd" clip-rule="evenodd" d="M788.817 164.938C792.527 150.33 797.191 123.242 780.751 114.058C764.388 104.914 743.095 122.435 731.851 132.952C720.64 122.54 698.748 105.093 682.323 114.306C665.966 123.481 671.01 150.121 674.802 164.82C659.544 169.019 633.389 178.064 633.389 196.542C633.389 214.968 659.517 224.808 674.685 229.003C670.878 243.784 666.087 270.043 682.464 279.197C698.952 288.409 720.775 271.377 732.123 260.745C743.439 271.324 764.528 288.467 780.894 279.287C797.311 270.078 793.036 243.353 789.243 228.568C803.946 224.364 830.131 214.738 830.131 196.542C830.131 178.241 803.835 169.124 788.817 164.938ZM786.954 220.733C784.464 213.095 781.103 204.973 776.991 196.583C780.916 188.39 784.146 180.373 786.567 172.785C797.576 175.877 821.726 182.946 821.726 196.542C821.726 210.266 798.551 217.402 786.954 220.733ZM776.682 272.239C764.471 279.088 746.332 262.694 737.975 254.904C743.52 249.028 749.06 242.198 754.467 234.613C763.979 233.796 772.964 232.459 781.113 230.634C783.782 241.092 788.947 265.36 776.682 272.239ZM686.664 272.142C674.452 265.318 680.033 241.886 682.834 230.998C690.892 232.726 699.813 233.968 709.347 234.717C714.789 242.139 720.49 248.961 726.235 254.935C719.137 261.588 698.933 278.996 686.664 272.142ZM641.793 196.542C641.793 182.767 665.799 175.749 677.059 172.665C679.521 180.424 682.751 188.537 686.648 196.741C682.7 205.067 679.425 213.308 676.94 221.159C666.203 218.181 641.793 210.326 641.793 196.542ZM686.533 121.354C698.796 114.477 717.822 131.226 725.962 138.765C720.246 144.712 714.598 151.483 709.202 158.862C699.949 159.693 691.091 161.027 682.949 162.815C679.894 150.959 674.284 128.224 686.533 121.354ZM760.479 167.713C766.757 168.481 772.771 169.502 778.418 170.751C776.723 176.016 774.61 181.522 772.121 187.166C768.514 180.534 764.641 174.034 760.479 167.713ZM731.853 144.585C735.73 148.654 739.612 153.198 743.432 158.128C735.685 157.772 727.925 157.771 720.178 158.122C724.001 153.238 727.917 148.701 731.853 144.585ZM691.47 187.16C689.023 181.536 686.929 176.006 685.219 170.665C690.832 169.448 696.818 168.453 703.055 167.698C698.881 174.005 695.015 180.502 691.47 187.16ZM703.234 225.967C696.791 225.271 690.714 224.326 685.103 223.143C686.84 217.708 688.98 212.059 691.48 206.313C695.074 213.041 698.999 219.6 703.234 225.967ZM732.086 249.075C728.103 244.91 724.129 240.303 720.249 235.349C728.04 235.645 735.846 235.645 743.636 235.309C739.805 240.354 735.936 244.967 732.086 249.075ZM772.201 206.021C774.831 211.829 777.048 217.447 778.809 222.79C773.104 224.052 766.945 225.068 760.456 225.822C764.648 219.381 768.583 212.78 772.201 206.021ZM749.777 226.809C737.859 227.634 725.868 227.625 713.947 226.876C707.173 217.289 701.143 207.206 695.938 196.738C701.118 186.292 707.104 176.229 713.846 166.656C725.775 165.782 737.779 165.78 749.708 166.661C756.392 176.233 762.369 186.27 767.67 196.622C762.432 207.063 756.415 217.147 749.777 226.809ZM776.553 121.112C788.819 127.967 783.359 152.313 780.68 162.899C772.517 161.074 763.653 159.716 754.374 158.872C748.967 151.413 743.366 144.631 737.743 138.761C745.987 131.06 764.406 114.324 776.553 121.112Z" fill="#E03C8A"/>
</g>
<path d="M142.765 129.344C142.989 129.344 143.117 129.376 143.149 129.44C143.213 129.472 143.245 129.6 143.245 129.824V138.08C143.245 138.304 143.261 138.448 143.293 138.512C143.357 138.544 143.501 138.56 143.725 138.56H160.717C160.941 138.56 161.069 138.544 161.101 138.512C161.165 138.448 161.197 138.304 161.197 138.08V129.824C161.197 129.6 161.213 129.472 161.245 129.44C161.309 129.376 161.453 129.344 161.677 129.344H163.357C163.581 129.344 163.709 129.376 163.741 129.44C163.805 129.472 163.837 129.6 163.837 129.824V151.52C163.837 151.744 163.805 151.888 163.741 151.952C163.709 151.984 163.581 152 163.357 152H161.677C161.453 152 161.309 151.984 161.245 151.952C161.213 151.888 161.197 151.744 161.197 151.52V143.84C161.197 143.616 161.165 143.488 161.101 143.456C161.069 143.392 160.941 143.36 160.717 143.36H143.725C143.501 143.36 143.357 143.392 143.293 143.456C143.261 143.488 143.245 143.616 143.245 143.84V151.52C143.245 151.744 143.213 151.888 143.149 151.952C143.117 151.984 142.989 152 142.765 152H141.085C140.861 152 140.717 151.984 140.653 151.952C140.621 151.888 140.605 151.744 140.605 151.52V129.824C140.605 129.6 140.621 129.472 140.653 129.44C140.717 129.376 140.861 129.344 141.085 129.344H142.765ZM179.448 134.528C177.72 134.528 176.28 134.56 175.128 134.624C173.976 134.688 173.032 134.864 172.296 135.152C171.56 135.44 171.016 135.872 170.664 136.448C170.312 137.024 170.088 137.84 169.992 138.896H188.088C188.536 138.896 188.808 138.944 188.904 139.04C189 139.136 189.048 139.408 189.048 139.856V141.296C189.048 141.744 189 142.016 188.904 142.112C188.808 142.208 188.536 142.256 188.088 142.256H169.992C170.088 143.312 170.312 144.128 170.664 144.704C171.016 145.28 171.56 145.712 172.296 146C173.032 146.288 173.976 146.464 175.128 146.528C176.28 146.592 177.72 146.624 179.448 146.624H189.048C189.496 146.624 189.768 146.672 189.864 146.768C189.96 146.864 190.008 147.136 190.008 147.584V148.352C190.008 149.76 189.48 150.752 188.424 151.328C187.368 151.904 185.656 152.192 183.288 152.192H179.448C176.568 152.192 174.312 151.952 172.68 151.472C171.08 150.96 169.896 150.224 169.128 149.264C168.36 148.304 167.88 147.104 167.688 145.664C167.528 144.192 167.448 142.496 167.448 140.576C167.448 138.656 167.528 136.976 167.688 135.536C167.88 134.064 168.36 132.848 169.128 131.888C169.896 130.928 171.08 130.208 172.68 129.728C174.312 129.216 176.568 128.96 179.448 128.96H183.288C185.656 128.96 187.368 129.248 188.424 129.824C189.48 130.4 190.008 131.392 190.008 132.8V133.568C190.008 134.016 189.96 134.288 189.864 134.384C189.768 134.48 189.496 134.528 189.048 134.528H179.448ZM195.781 126.272C196.005 126.272 196.133 126.304 196.165 126.368C196.229 126.4 196.261 126.528 196.261 126.752V140.48C196.261 141.888 196.325 142.992 196.453 143.792C196.613 144.56 196.837 145.136 197.125 145.52C197.445 145.904 197.829 146.144 198.277 146.24C198.725 146.304 199.253 146.336 199.861 146.336H207.061C207.509 146.336 207.781 146.384 207.877 146.48C207.973 146.576 208.021 146.848 208.021 147.296V151.136C208.021 151.584 207.973 151.856 207.877 151.952C207.781 152.048 207.509 152.096 207.061 152.096H199.861C198.325 152.096 197.125 151.856 196.261 151.376C195.429 150.864 194.821 150.128 194.437 149.168C194.053 148.208 193.813 147.008 193.717 145.568C193.653 144.096 193.621 142.4 193.621 140.48V126.752C193.621 126.528 193.637 126.4 193.669 126.368C193.733 126.304 193.877 126.272 194.101 126.272H195.781ZM212.375 126.272C212.599 126.272 212.727 126.304 212.759 126.368C212.823 126.4 212.855 126.528 212.855 126.752V140.48C212.855 141.888 212.919 142.992 213.047 143.792C213.207 144.56 213.431 145.136 213.719 145.52C214.039 145.904 214.423 146.144 214.871 146.24C215.319 146.304 215.847 146.336 216.455 146.336H223.655C224.103 146.336 224.375 146.384 224.471 146.48C224.567 146.576 224.615 146.848 224.615 147.296V151.136C224.615 151.584 224.567 151.856 224.471 151.952C224.375 152.048 224.103 152.096 223.655 152.096H216.455C214.919 152.096 213.719 151.856 212.855 151.376C212.023 150.864 211.415 150.128 211.031 149.168C210.647 148.208 210.407 147.008 210.311 145.568C210.247 144.096 210.215 142.4 210.215 140.48V126.752C210.215 126.528 210.231 126.4 210.263 126.368C210.327 126.304 210.471 126.272 210.695 126.272H212.375ZM251.026 140.576C251.026 142.496 250.93 144.192 250.738 145.664C250.578 147.136 250.114 148.368 249.346 149.36C248.578 150.352 247.378 151.104 245.746 151.616C244.146 152.128 241.906 152.384 239.026 152.384C236.146 152.384 233.89 152.128 232.258 151.616C230.658 151.104 229.474 150.352 228.706 149.36C227.938 148.368 227.458 147.136 227.266 145.664C227.106 144.192 227.026 142.496 227.026 140.576C227.026 138.656 227.106 136.96 227.266 135.488C227.458 134.016 227.938 132.784 228.706 131.792C229.474 130.8 230.658 130.048 232.258 129.536C233.89 129.024 236.146 128.768 239.026 128.768C241.906 128.768 244.146 129.024 245.746 129.536C247.378 130.048 248.578 130.8 249.346 131.792C250.114 132.784 250.578 134.016 250.738 135.488C250.93 136.96 251.026 138.656 251.026 140.576ZM229.426 140.576C229.426 142.016 229.554 143.152 229.81 143.984C230.098 144.784 230.594 145.376 231.298 145.76C232.034 146.144 233.026 146.384 234.274 146.48C235.522 146.576 237.106 146.624 239.026 146.624C240.946 146.624 242.514 146.576 243.73 146.48C244.978 146.384 245.954 146.144 246.658 145.76C247.394 145.376 247.906 144.784 248.194 143.984C248.482 143.152 248.626 142.016 248.626 140.576C248.626 139.136 248.482 138.016 248.194 137.216C247.906 136.384 247.394 135.776 246.658 135.392C245.954 135.008 244.978 134.768 243.73 134.672C242.514 134.576 240.946 134.528 239.026 134.528C237.106 134.528 235.522 134.576 234.274 134.672C233.026 134.768 232.034 135.008 231.298 135.392C230.594 135.776 230.098 136.384 229.81 137.216C229.554 138.016 229.426 139.136 229.426 140.576ZM302.26 140.672C301.588 143.52 301.012 145.728 300.532 147.296C300.084 148.864 299.636 150.032 299.188 150.8C298.772 151.536 298.308 151.984 297.796 152.144C297.316 152.304 296.724 152.384 296.02 152.384C295.284 152.384 294.676 152.304 294.196 152.144C293.716 151.984 293.252 151.536 292.804 150.8C292.388 150.032 291.94 148.864 291.46 147.296C291.012 145.728 290.452 143.52 289.78 140.672C289.524 139.648 289.284 138.8 289.06 138.128C288.868 137.456 288.644 136.928 288.388 136.544C288.132 136.128 287.828 135.84 287.476 135.68C287.156 135.52 286.756 135.44 286.276 135.44C285.796 135.44 285.38 135.52 285.028 135.68C284.708 135.84 284.42 136.128 284.164 136.544C283.908 136.928 283.668 137.456 283.444 138.128C283.252 138.8 283.028 139.648 282.772 140.672C282.1 143.52 281.524 145.728 281.044 147.296C280.596 148.864 280.148 150.032 279.7 150.8C279.284 151.536 278.82 151.984 278.308 152.144C277.828 152.304 277.236 152.384 276.532 152.384C275.796 152.384 275.188 152.304 274.708 152.144C274.228 151.984 273.764 151.536 273.316 150.8C272.9 150.032 272.452 148.864 271.972 147.296C271.524 145.728 270.964 143.52 270.292 140.672L267.652 129.776C267.588 129.584 267.588 129.472 267.652 129.44C267.748 129.376 267.876 129.344 268.036 129.344H269.764C269.956 129.344 270.084 129.376 270.148 129.44C270.244 129.472 270.324 129.584 270.388 129.776L273.028 140.768C273.316 142.016 273.572 142.992 273.796 143.696C274.052 144.4 274.308 144.928 274.564 145.28C274.82 145.632 275.108 145.856 275.428 145.952C275.748 146.016 276.148 146.048 276.628 146.048C277.108 146.048 277.492 146.016 277.78 145.952C278.1 145.856 278.372 145.632 278.596 145.28C278.82 144.928 279.028 144.4 279.22 143.696C279.444 142.992 279.716 142.016 280.036 140.768C280.644 138.304 281.156 136.336 281.572 134.864C281.988 133.36 282.404 132.208 282.82 131.408C283.236 130.608 283.7 130.08 284.212 129.824C284.756 129.568 285.444 129.44 286.276 129.44C287.108 129.44 287.78 129.568 288.292 129.824C288.836 130.08 289.316 130.608 289.732 131.408C290.148 132.208 290.564 133.36 290.98 134.864C291.396 136.336 291.908 138.304 292.516 140.768C292.836 142.016 293.092 142.992 293.284 143.696C293.508 144.4 293.732 144.928 293.956 145.28C294.18 145.632 294.436 145.856 294.724 145.952C295.044 146.016 295.444 146.048 295.924 146.048C296.404 146.048 296.804 146.016 297.124 145.952C297.444 145.856 297.732 145.632 297.988 145.28C298.244 144.928 298.484 144.4 298.708 143.696C298.964 142.992 299.236 142.016 299.524 140.768L302.164 129.776C302.228 129.584 302.292 129.472 302.356 129.44C302.452 129.376 302.596 129.344 302.788 129.344H304.516C304.676 129.344 304.788 129.376 304.852 129.44C304.948 129.472 304.964 129.584 304.9 129.776L302.26 140.672ZM331.135 140.576C331.135 142.496 331.039 144.192 330.847 145.664C330.687 147.136 330.223 148.368 329.455 149.36C328.687 150.352 327.487 151.104 325.855 151.616C324.255 152.128 322.015 152.384 319.135 152.384C316.255 152.384 313.999 152.128 312.367 151.616C310.767 151.104 309.583 150.352 308.815 149.36C308.047 148.368 307.567 147.136 307.375 145.664C307.215 144.192 307.135 142.496 307.135 140.576C307.135 138.656 307.215 136.96 307.375 135.488C307.567 134.016 308.047 132.784 308.815 131.792C309.583 130.8 310.767 130.048 312.367 129.536C313.999 129.024 316.255 128.768 319.135 128.768C322.015 128.768 324.255 129.024 325.855 129.536C327.487 130.048 328.687 130.8 329.455 131.792C330.223 132.784 330.687 134.016 330.847 135.488C331.039 136.96 331.135 138.656 331.135 140.576ZM309.535 140.576C309.535 142.016 309.663 143.152 309.919 143.984C310.207 144.784 310.703 145.376 311.407 145.76C312.143 146.144 313.135 146.384 314.383 146.48C315.631 146.576 317.215 146.624 319.135 146.624C321.055 146.624 322.623 146.576 323.839 146.48C325.087 146.384 326.063 146.144 326.767 145.76C327.503 145.376 328.015 144.784 328.303 143.984C328.591 143.152 328.735 142.016 328.735 140.576C328.735 139.136 328.591 138.016 328.303 137.216C328.015 136.384 327.503 135.776 326.767 135.392C326.063 135.008 325.087 134.768 323.839 134.672C322.623 134.576 321.055 134.528 319.135 134.528C317.215 134.528 315.631 134.576 314.383 134.672C313.135 134.768 312.143 135.008 311.407 135.392C310.703 135.776 310.207 136.384 309.919 137.216C309.663 138.016 309.535 139.136 309.535 140.576ZM340.667 144.08C340.667 142.96 341.019 141.968 341.723 141.104C342.459 140.208 343.563 139.68 345.035 139.52L351.323 138.752C352.219 138.656 352.939 138.544 353.483 138.416C354.059 138.288 354.507 138.128 354.827 137.936C355.147 137.744 355.355 137.52 355.451 137.264C355.547 136.976 355.595 136.624 355.595 136.208C355.595 135.856 355.515 135.552 355.355 135.296C355.195 135.04 354.875 134.832 354.395 134.672C353.947 134.48 353.307 134.352 352.475 134.288C351.643 134.192 350.571 134.144 349.259 134.144H344.555C343.147 134.144 341.979 134.224 341.051 134.384C340.123 134.512 339.387 134.736 338.843 135.056C338.299 135.376 337.915 135.792 337.691 136.304C337.467 136.784 337.355 137.376 337.355 138.08V151.52C337.355 151.744 337.323 151.888 337.259 151.952C337.227 151.984 337.099 152 336.875 152H335.195C334.971 152 334.827 151.984 334.763 151.952C334.731 151.888 334.715 151.744 334.715 151.52V138.08C334.715 136.384 334.891 134.944 335.243 133.76C335.595 132.576 336.155 131.616 336.923 130.88C337.691 130.144 338.699 129.616 339.947 129.296C341.195 128.944 342.731 128.768 344.555 128.768H348.299C350.347 128.768 351.995 128.944 353.243 129.296C354.523 129.648 355.515 130.16 356.219 130.832C356.923 131.504 357.387 132.32 357.611 133.28C357.867 134.24 357.995 135.312 357.995 136.496C357.995 137.456 357.915 138.256 357.755 138.896C357.595 139.504 357.307 140 356.891 140.384C356.507 140.768 355.963 141.072 355.259 141.296C354.587 141.488 353.739 141.648 352.715 141.776L345.995 142.592C344.331 142.784 343.499 143.328 343.499 144.224C343.499 144.704 343.707 145.072 344.123 145.328C344.539 145.584 345.147 145.792 345.947 145.952L357.563 148.448C358.331 148.608 358.907 148.832 359.291 149.12C359.675 149.376 359.867 149.792 359.867 150.368C359.867 151.072 359.387 151.536 358.427 151.76C357.499 151.952 355.787 152.048 353.291 152.048H348.539C345.915 152.048 343.947 151.44 342.635 150.224C341.323 149.008 340.667 146.96 340.667 144.08ZM364.859 126.272C365.083 126.272 365.211 126.304 365.243 126.368C365.307 126.4 365.339 126.528 365.339 126.752V140.48C365.339 141.888 365.403 142.992 365.531 143.792C365.691 144.56 365.915 145.136 366.203 145.52C366.523 145.904 366.907 146.144 367.355 146.24C367.803 146.304 368.331 146.336 368.939 146.336H376.139C376.587 146.336 376.859 146.384 376.955 146.48C377.051 146.576 377.099 146.848 377.099 147.296V151.136C377.099 151.584 377.051 151.856 376.955 151.952C376.859 152.048 376.587 152.096 376.139 152.096H368.939C367.403 152.096 366.203 151.856 365.339 151.376C364.507 150.864 363.899 150.128 363.515 149.168C363.131 148.208 362.891 147.008 362.795 145.568C362.731 144.096 362.699 142.4 362.699 140.48V126.752C362.699 126.528 362.715 126.4 362.747 126.368C362.811 126.304 362.955 126.272 363.179 126.272H364.859ZM401.83 140.576C401.83 142.496 401.734 144.176 401.542 145.616C401.382 147.056 400.918 148.256 400.15 149.216C399.382 150.176 398.182 150.896 396.55 151.376C394.95 151.856 392.71 152.096 389.83 152.096H381.19C380.742 152.096 380.47 152.048 380.374 151.952C380.278 151.856 380.23 151.584 380.23 151.136V130.016C380.23 129.568 380.278 129.296 380.374 129.2C380.47 129.104 380.742 129.056 381.19 129.056H389.83C392.71 129.056 394.95 129.296 396.55 129.776C398.182 130.256 399.382 130.976 400.15 131.936C400.918 132.896 401.382 134.096 401.542 135.536C401.734 136.976 401.83 138.656 401.83 140.576ZM389.83 146.336C391.75 146.336 393.318 146.304 394.534 146.24C395.782 146.144 396.758 145.92 397.462 145.568C398.198 145.184 398.71 144.608 398.998 143.84C399.286 143.072 399.43 141.984 399.43 140.576C399.43 139.168 399.286 138.08 398.998 137.312C398.71 136.544 398.198 135.984 397.462 135.632C396.758 135.248 395.782 135.024 394.534 134.96C393.318 134.864 391.75 134.816 389.83 134.816H383.11C382.886 134.816 382.742 134.848 382.678 134.912C382.646 134.944 382.63 135.072 382.63 135.296V145.856C382.63 146.08 382.646 146.224 382.678 146.288C382.742 146.32 382.886 146.336 383.11 146.336H389.83ZM404.249 152.96C404.473 152.928 404.681 152.88 404.873 152.816C405.065 152.752 405.209 152.624 405.305 152.432C405.433 152.272 405.529 152.016 405.593 151.664C405.657 151.28 405.689 150.752 405.689 150.08V148.16C405.689 147.68 405.705 147.312 405.737 147.056C405.769 146.8 405.833 146.624 405.929 146.528C406.057 146.4 406.249 146.32 406.505 146.288C406.761 146.256 407.129 146.24 407.609 146.24H409.529C410.009 146.24 410.377 146.256 410.633 146.288C410.889 146.32 411.065 146.4 411.161 146.528C411.289 146.624 411.369 146.8 411.401 147.056C411.433 147.312 411.449 147.68 411.449 148.16V148.64C411.449 149.44 411.257 150.128 410.873 150.704C410.489 151.248 409.961 151.696 409.289 152.048C408.617 152.432 407.849 152.72 406.985 152.912C406.121 153.136 405.209 153.312 404.249 153.44V152.96Z" fill="white"/>
<path d="M432.787 129.344C433.011 129.344 433.139 129.376 433.171 129.44C433.235 129.472 433.267 129.6 433.267 129.824V151.52C433.267 151.744 433.235 151.888 433.171 151.952C433.139 151.984 433.011 152 432.787 152H430.867C430.643 152 430.499 151.984 430.435 151.952C430.403 151.888 430.387 151.744 430.387 151.52V129.824C430.387 129.6 430.403 129.472 430.435 129.44C430.499 129.376 430.643 129.344 430.867 129.344H432.787ZM449.845 126.368V126.656C449.845 126.816 449.813 126.928 449.749 126.992C449.685 127.024 449.525 127.04 449.269 127.04H446.869C446.549 127.04 446.309 127.008 446.149 126.944C446.021 126.88 445.861 126.72 445.669 126.464L442.789 122.864C442.693 122.736 442.645 122.624 442.645 122.528C442.645 122.336 442.805 122.24 443.125 122.24H448.597C448.917 122.24 449.157 122.272 449.317 122.336C449.477 122.4 449.573 122.592 449.605 122.912L449.845 126.368ZM493.093 128.96C494.629 128.96 495.813 129.216 496.645 129.728C497.509 130.208 498.133 130.928 498.517 131.888C498.901 132.848 499.125 134.064 499.189 135.536C499.285 136.976 499.333 138.656 499.333 140.576V151.52C499.333 151.744 499.301 151.888 499.237 151.952C499.205 151.984 499.077 152 498.853 152H497.413C497.189 152 497.045 151.984 496.981 151.952C496.949 151.888 496.933 151.744 496.933 151.52V140.576C496.933 139.296 496.837 138.288 496.645 137.552C496.485 136.816 496.229 136.288 495.877 135.968C495.557 135.616 495.157 135.408 494.677 135.344C494.229 135.248 493.701 135.2 493.093 135.2C492.389 135.2 491.797 135.264 491.317 135.392C490.837 135.488 490.421 135.728 490.069 136.112C489.717 136.464 489.397 136.992 489.109 137.696C488.821 138.368 488.501 139.264 488.149 140.384C487.285 143.2 486.565 145.408 485.989 147.008C485.445 148.576 484.917 149.744 484.405 150.512C483.925 151.28 483.381 151.76 482.773 151.952C482.197 152.112 481.429 152.192 480.469 152.192C479.509 152.192 478.725 152.112 478.117 151.952C477.541 151.76 476.997 151.28 476.485 150.512C476.005 149.744 475.477 148.576 474.901 147.008C474.357 145.408 473.653 143.2 472.789 140.384C472.437 139.264 472.117 138.368 471.829 137.696C471.541 136.992 471.221 136.464 470.869 136.112C470.517 135.728 470.101 135.488 469.621 135.392C469.141 135.264 468.549 135.2 467.845 135.2C467.237 135.2 466.693 135.248 466.213 135.344C465.765 135.408 465.365 135.616 465.013 135.968C464.693 136.288 464.437 136.816 464.245 137.552C464.085 138.288 464.005 139.296 464.005 140.576V151.52C464.005 151.744 463.973 151.888 463.909 151.952C463.877 151.984 463.749 152 463.525 152H462.085C461.861 152 461.717 151.984 461.653 151.952C461.621 151.888 461.605 151.744 461.605 151.52V140.576C461.605 138.656 461.637 136.976 461.701 135.536C461.797 134.064 462.037 132.848 462.421 131.888C462.805 130.928 463.413 130.208 464.245 129.728C465.109 129.216 466.309 128.96 467.845 128.96C468.805 128.96 469.605 129.072 470.245 129.296C470.917 129.52 471.509 130.032 472.021 130.832C472.565 131.6 473.093 132.752 473.605 134.288C474.149 135.792 474.789 137.856 475.525 140.48C475.909 141.824 476.245 142.864 476.533 143.6C476.821 144.336 477.125 144.88 477.445 145.232C477.797 145.584 478.197 145.792 478.645 145.856C479.125 145.92 479.733 145.952 480.469 145.952C481.173 145.952 481.765 145.92 482.245 145.856C482.725 145.792 483.125 145.584 483.445 145.232C483.797 144.88 484.117 144.336 484.405 143.6C484.693 142.864 485.029 141.824 485.413 140.48C486.117 137.856 486.741 135.792 487.285 134.288C487.829 132.752 488.357 131.6 488.869 130.832C489.413 130.032 490.005 129.52 490.645 129.296C491.317 129.072 492.133 128.96 493.093 128.96ZM520.443 138.56H521.931C522.731 138.56 523.419 138.512 523.995 138.416C524.571 138.32 525.067 138.144 525.483 137.888C525.931 137.6 526.331 137.216 526.683 136.736C527.035 136.224 527.387 135.568 527.739 134.768C528.251 133.616 528.699 132.672 529.083 131.936C529.467 131.2 529.899 130.624 530.379 130.208C530.891 129.76 531.483 129.456 532.155 129.296C532.859 129.136 533.787 129.056 534.939 129.056H536.331C537.739 129.056 538.731 129.424 539.307 130.16C539.883 130.896 540.171 131.968 540.171 133.376V133.664C540.171 134.112 540.123 134.384 540.027 134.48C539.931 134.576 539.659 134.624 539.211 134.624H534.459C533.563 134.624 532.795 134.736 532.155 134.96C531.515 135.152 530.939 135.488 530.427 135.968C529.915 136.416 529.451 137.024 529.035 137.792C528.619 138.528 528.171 139.456 527.691 140.576C528.171 141.696 528.619 142.64 529.035 143.408C529.451 144.144 529.915 144.752 530.427 145.232C530.939 145.68 531.515 146.016 532.155 146.24C532.795 146.432 533.563 146.528 534.459 146.528H539.211C539.659 146.528 539.931 146.576 540.027 146.672C540.123 146.768 540.171 147.04 540.171 147.488V151.136C540.171 151.584 540.123 151.856 540.027 151.952C539.931 152.048 539.659 152.096 539.211 152.096H534.939C533.787 152.096 532.859 152 532.155 151.808C531.483 151.616 530.891 151.296 530.379 150.848C529.899 150.4 529.451 149.808 529.035 149.072C528.651 148.304 528.203 147.36 527.691 146.24C527.307 145.408 526.939 144.736 526.587 144.224C526.235 143.712 525.851 143.328 525.435 143.072C525.019 142.784 524.523 142.608 523.947 142.544C523.403 142.448 522.731 142.4 521.931 142.4H520.443V151.616C520.443 151.84 520.411 151.968 520.347 152C520.315 152.064 520.187 152.096 519.963 152.096H518.283C518.059 152.096 517.915 152.064 517.851 152C517.819 151.968 517.803 151.84 517.803 151.616V125.888C517.803 125.664 517.819 125.536 517.851 125.504C517.915 125.44 518.059 125.408 518.283 125.408H519.963C520.187 125.408 520.315 125.44 520.347 125.504C520.411 125.536 520.443 125.664 520.443 125.888V138.56ZM567.057 140.576C567.057 142.496 566.961 144.192 566.769 145.664C566.609 147.136 566.145 148.368 565.377 149.36C564.609 150.352 563.409 151.104 561.777 151.616C560.177 152.128 557.937 152.384 555.057 152.384C552.177 152.384 549.921 152.128 548.289 151.616C546.689 151.104 545.505 150.352 544.737 149.36C543.969 148.368 543.489 147.136 543.297 145.664C543.137 144.192 543.057 142.496 543.057 140.576C543.057 138.656 543.137 136.96 543.297 135.488C543.489 134.016 543.969 132.784 544.737 131.792C545.505 130.8 546.689 130.048 548.289 129.536C549.921 129.024 552.177 128.768 555.057 128.768C557.937 128.768 560.177 129.024 561.777 129.536C563.409 130.048 564.609 130.8 565.377 131.792C566.145 132.784 566.609 134.016 566.769 135.488C566.961 136.96 567.057 138.656 567.057 140.576ZM545.457 140.576C545.457 142.016 545.585 143.152 545.841 143.984C546.129 144.784 546.625 145.376 547.329 145.76C548.065 146.144 549.057 146.384 550.305 146.48C551.553 146.576 553.137 146.624 555.057 146.624C556.977 146.624 558.545 146.576 559.761 146.48C561.009 146.384 561.985 146.144 562.689 145.76C563.425 145.376 563.937 144.784 564.225 143.984C564.513 143.152 564.657 142.016 564.657 140.576C564.657 139.136 564.513 138.016 564.225 137.216C563.937 136.384 563.425 135.776 562.689 135.392C561.985 135.008 561.009 134.768 559.761 134.672C558.545 134.576 556.977 134.528 555.057 134.528C553.137 134.528 551.553 134.576 550.305 134.672C549.057 134.768 548.065 135.008 547.329 135.392C546.625 135.776 546.129 136.384 545.841 137.216C545.585 138.016 545.457 139.136 545.457 140.576ZM577.117 152.096C575.901 152.096 574.861 152.048 573.997 151.952C573.165 151.856 572.477 151.696 571.933 151.472C571.421 151.216 571.037 150.88 570.781 150.464C570.525 150.016 570.397 149.44 570.397 148.736V147.776C570.397 147.328 570.445 147.056 570.541 146.96C570.637 146.864 570.909 146.816 571.357 146.816H582.397C584.061 146.816 585.421 146.784 586.477 146.72C587.565 146.656 588.397 146.544 588.973 146.384C589.581 146.224 589.997 146.016 590.221 145.76C590.445 145.472 590.557 145.12 590.557 144.704C590.557 143.872 589.821 143.296 588.349 142.976C586.877 142.656 584.573 142.4 581.437 142.208C579.773 142.112 578.253 142 576.877 141.872C575.533 141.712 574.365 141.44 573.373 141.056C572.413 140.64 571.661 140.032 571.117 139.232C570.573 138.432 570.301 137.312 570.301 135.872C570.301 134.688 570.429 133.664 570.685 132.8C570.941 131.936 571.421 131.232 572.125 130.688C572.861 130.112 573.885 129.696 575.197 129.44C576.541 129.184 578.301 129.056 580.477 129.056H585.277C587.677 129.056 589.389 129.344 590.413 129.92C591.469 130.464 591.997 131.456 591.997 132.896V133.472C591.997 133.92 591.949 134.192 591.853 134.288C591.757 134.384 591.485 134.432 591.037 134.432H580.477C578.845 134.432 577.549 134.496 576.589 134.624C575.629 134.72 574.893 134.88 574.381 135.104C573.901 135.296 573.581 135.536 573.421 135.824C573.261 136.08 573.181 136.352 573.181 136.64C573.181 137.28 573.805 137.776 575.053 138.128C576.333 138.448 578.461 138.688 581.437 138.848C583.389 138.944 585.117 139.072 586.621 139.232C588.125 139.36 589.373 139.632 590.365 140.048C591.389 140.464 592.157 141.088 592.669 141.92C593.181 142.752 593.437 143.936 593.437 145.472C593.437 146.688 593.261 147.712 592.909 148.544C592.589 149.376 591.997 150.064 591.133 150.608C590.301 151.12 589.165 151.504 587.725 151.76C586.317 151.984 584.541 152.096 582.397 152.096H577.117ZM606.147 152C605.923 152 605.779 151.984 605.715 151.952C605.683 151.888 605.667 151.744 605.667 151.52V135.296C605.667 135.072 605.635 134.944 605.571 134.912C605.539 134.848 605.411 134.816 605.187 134.816H596.307C595.859 134.816 595.587 134.768 595.491 134.672C595.395 134.576 595.347 134.304 595.347 133.856V133.184C595.347 132.48 595.443 131.888 595.635 131.408C595.859 130.896 596.211 130.48 596.691 130.16C597.171 129.808 597.811 129.552 598.611 129.392C599.411 129.232 600.403 129.152 601.587 129.152H612.627C614.963 129.152 616.579 129.488 617.475 130.16C618.403 130.8 618.867 131.808 618.867 133.184V133.856C618.867 134.304 618.819 134.576 618.723 134.672C618.627 134.768 618.355 134.816 617.907 134.816H609.027C608.803 134.816 608.659 134.848 608.595 134.912C608.563 134.944 608.547 135.072 608.547 135.296V151.52C608.547 151.744 608.515 151.888 608.451 151.952C608.419 151.984 608.291 152 608.067 152H606.147ZM632.536 155.552C632.312 155.552 632.168 155.52 632.104 155.456C632.072 155.424 632.056 155.296 632.056 155.072V147.536C632.056 147.312 632.024 147.184 631.96 147.152C631.928 147.088 631.8 147.056 631.576 147.056C629.112 147.056 627.176 146.8 625.768 146.288C624.392 145.776 623.368 145.024 622.696 144.032C622.024 143.04 621.608 141.84 621.448 140.432C621.32 138.992 621.256 137.36 621.256 135.536V129.824C621.256 129.6 621.272 129.472 621.304 129.44C621.368 129.376 621.512 129.344 621.736 129.344H623.416C623.64 129.344 623.768 129.376 623.8 129.44C623.864 129.472 623.896 129.6 623.896 129.824V136.016C623.896 137.456 624.024 138.592 624.28 139.424C624.536 140.224 625 140.848 625.672 141.296C626.376 141.712 627.336 141.984 628.552 142.112C629.768 142.208 631.336 142.256 633.256 142.256C635.176 142.256 636.744 142.208 637.96 142.112C639.176 141.984 640.12 141.712 640.792 141.296C641.496 140.848 641.976 140.224 642.232 139.424C642.488 138.592 642.616 137.456 642.616 136.016V129.824C642.616 129.6 642.632 129.472 642.664 129.44C642.728 129.376 642.872 129.344 643.096 129.344H644.776C645 129.344 645.128 129.376 645.16 129.44C645.224 129.472 645.256 129.6 645.256 129.824V135.536C645.256 137.36 645.176 138.992 645.016 140.432C644.856 141.84 644.44 143.04 643.768 144.032C643.096 144.992 642.056 145.744 640.648 146.288C639.272 146.8 637.368 147.056 634.936 147.056C634.712 147.056 634.568 147.088 634.504 147.152C634.472 147.184 634.456 147.312 634.456 147.536V155.072C634.456 155.296 634.424 155.424 634.36 155.456C634.328 155.52 634.2 155.552 633.976 155.552H632.536ZM649.82 152C649.596 152 649.452 151.984 649.388 151.952C649.356 151.888 649.34 151.744 649.34 151.52V140.576C649.34 138.656 649.436 136.96 649.628 135.488C649.852 134.016 650.348 132.784 651.116 131.792C651.916 130.8 653.068 130.048 654.572 129.536C656.108 129.024 658.204 128.768 660.86 128.768C663.484 128.768 665.564 129.024 667.1 129.536C668.636 130.048 669.788 130.8 670.556 131.792C671.356 132.784 671.852 134.016 672.044 135.488C672.268 136.96 672.38 138.656 672.38 140.576V151.52C672.38 151.744 672.348 151.888 672.284 151.952C672.252 151.984 672.124 152 671.9 152H670.46C670.236 152 670.092 151.984 670.028 151.952C669.996 151.888 669.98 151.744 669.98 151.52V146.912C669.98 146.688 669.948 146.56 669.884 146.528C669.852 146.464 669.724 146.432 669.5 146.432H652.22C651.996 146.432 651.852 146.464 651.788 146.528C651.756 146.56 651.74 146.688 651.74 146.912V151.52C651.74 151.744 651.708 151.888 651.644 151.952C651.612 151.984 651.484 152 651.26 152H649.82ZM651.74 141.632C651.74 141.824 651.756 141.952 651.788 142.016C651.852 142.08 651.996 142.112 652.22 142.112H669.5C669.724 142.112 669.852 142.096 669.884 142.064C669.948 142 669.98 141.856 669.98 141.632V140.576C669.98 139.136 669.836 138.016 669.548 137.216C669.292 136.416 668.812 135.824 668.108 135.44C667.436 135.024 666.508 134.768 665.324 134.672C664.14 134.576 662.652 134.528 660.86 134.528C659.068 134.528 657.58 134.576 656.396 134.672C655.212 134.768 654.268 135.024 653.564 135.44C652.892 135.824 652.412 136.416 652.124 137.216C651.868 138.016 651.74 139.136 651.74 140.576V141.632Z" fill="#E03C8A"/>
<path opacity="0.8" d="M292.999 186V176.112C292.999 175.504 293.17 175.013 293.511 174.64C293.863 174.267 294.359 174.08 294.999 174.08C295.298 174.08 295.591 174.128 295.879 174.224C296.178 174.32 296.423 174.469 296.615 174.672L296.391 174.896C296.221 174.725 296.013 174.597 295.767 174.512C295.533 174.427 295.282 174.384 295.015 174.384C294.461 174.384 294.039 174.539 293.751 174.848C293.463 175.157 293.319 175.605 293.319 176.192V177.776V177.952V186H292.999ZM291.399 178.032V177.728H296.119V178.032H291.399ZM297.84 186V177.728H298.16V180.016L298.128 179.968C298.352 179.243 298.741 178.683 299.296 178.288C299.861 177.883 300.565 177.68 301.408 177.68V178C301.397 178 301.381 178 301.36 178C301.349 178 301.333 178 301.312 178C300.32 178 299.547 178.32 298.992 178.96C298.437 179.589 298.16 180.453 298.16 181.552V186H297.84ZM306.771 186.048C306.003 186.048 305.315 185.872 304.707 185.52C304.109 185.157 303.635 184.661 303.283 184.032C302.931 183.392 302.755 182.667 302.755 181.856C302.755 181.035 302.931 180.315 303.283 179.696C303.635 179.067 304.109 178.576 304.707 178.224C305.315 177.861 306.003 177.68 306.771 177.68C307.539 177.68 308.227 177.861 308.835 178.224C309.443 178.576 309.917 179.067 310.259 179.696C310.611 180.315 310.787 181.035 310.787 181.856C310.787 182.667 310.611 183.392 310.259 184.032C309.917 184.661 309.443 185.157 308.835 185.52C308.227 185.872 307.539 186.048 306.771 186.048ZM306.771 185.744C307.475 185.744 308.104 185.579 308.659 185.248C309.224 184.917 309.667 184.459 309.987 183.872C310.307 183.285 310.467 182.613 310.467 181.856C310.467 181.088 310.307 180.416 309.987 179.84C309.667 179.253 309.224 178.8 308.659 178.48C308.104 178.149 307.475 177.984 306.771 177.984C306.067 177.984 305.437 178.149 304.883 178.48C304.328 178.8 303.885 179.253 303.555 179.84C303.235 180.416 303.075 181.088 303.075 181.856C303.075 182.613 303.235 183.285 303.555 183.872C303.885 184.459 304.328 184.917 304.883 185.248C305.437 185.579 306.067 185.744 306.771 185.744ZM317.288 177.68C317.971 177.68 318.558 177.813 319.048 178.08C319.539 178.336 319.918 178.72 320.184 179.232C320.462 179.744 320.6 180.373 320.6 181.12V186H320.28V181.12C320.28 180.096 320.019 179.317 319.496 178.784C318.974 178.251 318.243 177.984 317.304 177.984C316.579 177.984 315.955 178.133 315.432 178.432C314.91 178.72 314.51 179.131 314.232 179.664C313.955 180.187 313.816 180.8 313.816 181.504V186H313.496V177.728H313.816V180.08L313.784 180.032C314.03 179.307 314.451 178.736 315.048 178.32C315.646 177.893 316.392 177.68 317.288 177.68ZM326.312 186.048C325.661 186.048 325.165 185.861 324.824 185.488C324.482 185.115 324.312 184.624 324.312 184.016V175.92H324.632V183.936C324.632 184.523 324.776 184.971 325.064 185.28C325.352 185.589 325.773 185.744 326.328 185.744C326.882 185.744 327.341 185.573 327.704 185.232L327.928 185.456C327.736 185.659 327.49 185.808 327.192 185.904C326.904 186 326.61 186.048 326.312 186.048ZM322.712 178.032V177.728H327.432V178.032H322.712ZM333.226 186.048C332.426 186.048 331.717 185.872 331.098 185.52C330.48 185.157 329.989 184.661 329.626 184.032C329.274 183.392 329.098 182.667 329.098 181.856C329.098 181.035 329.264 180.315 329.594 179.696C329.925 179.067 330.378 178.576 330.954 178.224C331.541 177.861 332.197 177.68 332.922 177.68C333.648 177.68 334.298 177.856 334.874 178.208C335.461 178.549 335.92 179.029 336.25 179.648C336.592 180.267 336.762 180.976 336.762 181.776C336.762 181.787 336.762 181.797 336.762 181.808C336.762 181.819 336.762 181.835 336.762 181.856H329.274V181.552H336.586L336.458 181.792C336.458 181.067 336.304 180.416 335.994 179.84C335.685 179.264 335.264 178.811 334.73 178.48C334.208 178.149 333.605 177.984 332.922 177.984C332.25 177.984 331.648 178.149 331.114 178.48C330.581 178.811 330.16 179.264 329.85 179.84C329.552 180.416 329.402 181.067 329.402 181.792V181.856C329.402 182.613 329.568 183.285 329.898 183.872C330.229 184.459 330.682 184.917 331.258 185.248C331.834 185.579 332.49 185.744 333.226 185.744C333.781 185.744 334.304 185.637 334.794 185.424C335.296 185.211 335.712 184.891 336.042 184.464L336.266 184.688C335.904 185.136 335.456 185.477 334.922 185.712C334.389 185.936 333.824 186.048 333.226 186.048ZM343.257 177.68C343.94 177.68 344.526 177.813 345.017 178.08C345.508 178.336 345.886 178.72 346.153 179.232C346.43 179.744 346.569 180.373 346.569 181.12V186H346.249V181.12C346.249 180.096 345.988 179.317 345.465 178.784C344.942 178.251 344.212 177.984 343.273 177.984C342.548 177.984 341.924 178.133 341.401 178.432C340.878 178.72 340.478 179.131 340.201 179.664C339.924 180.187 339.785 180.8 339.785 181.504V186H339.465V177.728H339.785V180.08L339.753 180.032C339.998 179.307 340.42 178.736 341.017 178.32C341.614 177.893 342.361 177.68 343.257 177.68ZM353.193 186.048C352.435 186.048 351.753 185.872 351.145 185.52C350.537 185.157 350.057 184.661 349.705 184.032C349.353 183.392 349.177 182.667 349.177 181.856C349.177 181.035 349.353 180.315 349.705 179.696C350.057 179.067 350.537 178.576 351.145 178.224C351.753 177.861 352.435 177.68 353.193 177.68C353.95 177.68 354.627 177.861 355.225 178.224C355.822 178.576 356.291 179.067 356.633 179.696C356.985 180.315 357.161 181.035 357.161 181.856C357.161 182.667 356.985 183.392 356.633 184.032C356.291 184.661 355.822 185.157 355.225 185.52C354.627 185.872 353.95 186.048 353.193 186.048ZM353.193 185.744C353.897 185.744 354.526 185.579 355.081 185.248C355.646 184.917 356.089 184.459 356.409 183.872C356.729 183.285 356.889 182.613 356.889 181.856C356.889 181.088 356.729 180.416 356.409 179.84C356.089 179.253 355.646 178.8 355.081 178.48C354.526 178.149 353.897 177.984 353.193 177.984C352.489 177.984 351.859 178.149 351.305 178.48C350.75 178.8 350.307 179.253 349.977 179.84C349.657 180.416 349.497 181.088 349.497 181.856C349.497 182.613 349.657 183.285 349.977 183.872C350.307 184.459 350.75 184.917 351.305 185.248C351.859 185.579 352.489 185.744 353.193 185.744ZM356.889 186V182.96L357.049 181.84L356.889 180.72V174.128H357.209V186H356.889ZM360.087 181.92V181.616H364.087V181.92H360.087ZM370.161 186.048C369.404 186.048 368.721 185.872 368.113 185.52C367.505 185.157 367.025 184.661 366.673 184.032C366.321 183.392 366.145 182.667 366.145 181.856C366.145 181.035 366.321 180.315 366.673 179.696C367.025 179.067 367.505 178.576 368.113 178.224C368.721 177.861 369.404 177.68 370.161 177.68C370.919 177.68 371.596 177.861 372.193 178.224C372.791 178.576 373.26 179.067 373.601 179.696C373.953 180.315 374.129 181.035 374.129 181.856C374.129 182.667 373.953 183.392 373.601 184.032C373.26 184.661 372.791 185.157 372.193 185.52C371.596 185.872 370.919 186.048 370.161 186.048ZM370.161 185.744C370.865 185.744 371.495 185.579 372.049 185.248C372.615 184.917 373.057 184.459 373.377 183.872C373.697 183.285 373.857 182.613 373.857 181.856C373.857 181.088 373.697 180.416 373.377 179.84C373.057 179.253 372.615 178.8 372.049 178.48C371.495 178.149 370.865 177.984 370.161 177.984C369.457 177.984 368.828 178.149 368.273 178.48C367.719 178.8 367.276 179.253 366.945 179.84C366.625 180.416 366.465 181.088 366.465 181.856C366.465 182.613 366.625 183.285 366.945 183.872C367.276 184.459 367.719 184.917 368.273 185.248C368.828 185.579 369.457 185.744 370.161 185.744ZM373.857 186V182.96L374.017 181.84L373.857 180.72V174.128H374.177V186H373.857ZM381.008 186.048C380.208 186.048 379.498 185.872 378.88 185.52C378.261 185.157 377.77 184.661 377.408 184.032C377.056 183.392 376.88 182.667 376.88 181.856C376.88 181.035 377.045 180.315 377.376 179.696C377.706 179.067 378.16 178.576 378.736 178.224C379.322 177.861 379.978 177.68 380.704 177.68C381.429 177.68 382.08 177.856 382.656 178.208C383.242 178.549 383.701 179.029 384.032 179.648C384.373 180.267 384.544 180.976 384.544 181.776C384.544 181.787 384.544 181.797 384.544 181.808C384.544 181.819 384.544 181.835 384.544 181.856H377.056V181.552H384.368L384.24 181.792C384.24 181.067 384.085 180.416 383.776 179.84C383.466 179.264 383.045 178.811 382.512 178.48C381.989 178.149 381.386 177.984 380.704 177.984C380.032 177.984 379.429 178.149 378.896 178.48C378.362 178.811 377.941 179.264 377.632 179.84C377.333 180.416 377.184 181.067 377.184 181.792V181.856C377.184 182.613 377.349 183.285 377.68 183.872C378.01 184.459 378.464 184.917 379.04 185.248C379.616 185.579 380.272 185.744 381.008 185.744C381.562 185.744 382.085 185.637 382.576 185.424C383.077 185.211 383.493 184.891 383.824 184.464L384.048 184.688C383.685 185.136 383.237 185.477 382.704 185.712C382.17 185.936 381.605 186.048 381.008 186.048ZM389.154 186L385.346 177.728H385.714L389.378 185.776H389.25L392.914 177.728H393.282L389.474 186H389.154ZM401.743 186.048C401.071 186.048 400.474 185.936 399.951 185.712C399.428 185.477 399.018 185.157 398.719 184.752C398.42 184.347 398.271 183.867 398.271 183.312C398.271 182.896 398.367 182.501 398.559 182.128C398.751 181.755 399.066 181.376 399.503 180.992C399.951 180.597 400.559 180.171 401.327 179.712C402.042 179.285 402.602 178.917 403.007 178.608C403.412 178.299 403.7 178 403.871 177.712C404.042 177.424 404.127 177.104 404.127 176.752C404.127 176.24 403.956 175.829 403.615 175.52C403.284 175.211 402.804 175.056 402.175 175.056C401.514 175.056 400.996 175.227 400.623 175.568C400.26 175.909 400.079 176.357 400.079 176.912C400.079 177.168 400.116 177.413 400.191 177.648C400.266 177.883 400.404 178.144 400.607 178.432C400.81 178.709 401.092 179.051 401.455 179.456L407.407 185.952L407.167 186.16L401.167 179.6C400.794 179.184 400.5 178.832 400.287 178.544C400.084 178.245 399.946 177.968 399.871 177.712C399.796 177.456 399.759 177.189 399.759 176.912C399.759 176.475 399.855 176.096 400.047 175.776C400.25 175.456 400.532 175.205 400.895 175.024C401.258 174.843 401.684 174.752 402.175 174.752C402.634 174.752 403.028 174.832 403.359 174.992C403.7 175.152 403.962 175.381 404.143 175.68C404.335 175.979 404.431 176.336 404.431 176.752C404.431 177.125 404.34 177.472 404.159 177.792C403.988 178.101 403.69 178.427 403.263 178.768C402.847 179.099 402.271 179.488 401.535 179.936C400.778 180.395 400.18 180.805 399.743 181.168C399.316 181.531 399.018 181.883 398.847 182.224C398.676 182.555 398.591 182.917 398.591 183.312C398.591 183.803 398.724 184.235 398.991 184.608C399.258 184.981 399.626 185.269 400.095 185.472C400.575 185.675 401.124 185.776 401.743 185.776C402.543 185.776 403.247 185.616 403.855 185.296C404.474 184.976 404.986 184.491 405.391 183.84C405.807 183.189 406.111 182.363 406.303 181.36L406.575 181.424C406.372 182.48 406.052 183.349 405.615 184.032C405.178 184.715 404.634 185.221 403.983 185.552C403.332 185.883 402.586 186.048 401.743 186.048ZM416.652 186.048C415.948 186.048 415.34 185.92 414.828 185.664C414.326 185.397 413.937 185.008 413.66 184.496C413.393 183.984 413.26 183.355 413.26 182.608V177.728H413.58V182.608C413.58 183.632 413.846 184.411 414.38 184.944C414.913 185.477 415.665 185.744 416.636 185.744C417.329 185.744 417.926 185.6 418.428 185.312C418.929 185.013 419.313 184.597 419.58 184.064C419.846 183.531 419.98 182.917 419.98 182.224V177.728H420.3V186H419.98V183.664L420.012 183.712C419.777 184.427 419.372 184.997 418.796 185.424C418.22 185.84 417.505 186.048 416.652 186.048ZM423.981 186V177.728H424.301V186H423.981ZM424.141 175.44C424.034 175.44 423.938 175.397 423.853 175.312C423.767 175.227 423.725 175.131 423.725 175.024C423.725 174.907 423.767 174.811 423.853 174.736C423.938 174.651 424.034 174.608 424.141 174.608C424.258 174.608 424.354 174.651 424.429 174.736C424.514 174.811 424.557 174.907 424.557 175.024C424.557 175.131 424.514 175.227 424.429 175.312C424.354 175.397 424.258 175.44 424.141 175.44ZM425.821 187.6L431.101 172.528H431.421L426.141 187.6H425.821ZM434.949 186.048C434.245 186.048 433.637 185.92 433.125 185.664C432.623 185.397 432.234 185.008 431.957 184.496C431.69 183.984 431.557 183.355 431.557 182.608V177.728H431.877V182.608C431.877 183.632 432.143 184.411 432.677 184.944C433.21 185.477 433.962 185.744 434.933 185.744C435.626 185.744 436.223 185.6 436.725 185.312C437.226 185.013 437.61 184.597 437.877 184.064C438.143 183.531 438.277 182.917 438.277 182.224V177.728H438.597V186H438.277V183.664L438.309 183.712C438.074 184.427 437.669 184.997 437.093 185.424C436.517 185.84 435.802 186.048 434.949 186.048ZM440.886 186L444.262 181.648L444.246 181.76L441.078 177.728H441.478L444.47 181.568H444.342L447.334 177.728H447.718L444.518 181.824L444.534 181.632L447.958 186H447.542L444.374 181.904H444.454L441.286 186H440.886ZM457.286 186.048C456.529 186.048 455.846 185.872 455.238 185.52C454.63 185.157 454.15 184.661 453.798 184.032C453.446 183.392 453.27 182.667 453.27 181.856C453.27 181.035 453.446 180.315 453.798 179.696C454.15 179.067 454.63 178.576 455.238 178.224C455.846 177.861 456.529 177.68 457.286 177.68C458.044 177.68 458.721 177.861 459.318 178.224C459.916 178.576 460.385 179.067 460.726 179.696C461.078 180.315 461.254 181.035 461.254 181.856C461.254 182.667 461.078 183.392 460.726 184.032C460.385 184.661 459.916 185.157 459.318 185.52C458.721 185.872 458.044 186.048 457.286 186.048ZM457.286 185.744C457.99 185.744 458.62 185.579 459.174 185.248C459.74 184.917 460.182 184.459 460.502 183.872C460.822 183.285 460.982 182.613 460.982 181.856C460.982 181.088 460.822 180.416 460.502 179.84C460.182 179.253 459.74 178.8 459.174 178.48C458.62 178.149 457.99 177.984 457.286 177.984C456.582 177.984 455.953 178.149 455.398 178.48C454.844 178.8 454.401 179.253 454.07 179.84C453.75 180.416 453.59 181.088 453.59 181.856C453.59 182.613 453.75 183.285 454.07 183.872C454.401 184.459 454.844 184.917 455.398 185.248C455.953 185.579 456.582 185.744 457.286 185.744ZM460.982 186V182.96L461.142 181.84L460.982 180.72V174.128H461.302V186H460.982ZM468.133 186.048C467.333 186.048 466.623 185.872 466.005 185.52C465.386 185.157 464.895 184.661 464.533 184.032C464.181 183.392 464.005 182.667 464.005 181.856C464.005 181.035 464.17 180.315 464.501 179.696C464.831 179.067 465.285 178.576 465.861 178.224C466.447 177.861 467.103 177.68 467.829 177.68C468.554 177.68 469.205 177.856 469.781 178.208C470.367 178.549 470.826 179.029 471.157 179.648C471.498 180.267 471.669 180.976 471.669 181.776C471.669 181.787 471.669 181.797 471.669 181.808C471.669 181.819 471.669 181.835 471.669 181.856H464.181V181.552H471.493L471.365 181.792C471.365 181.067 471.21 180.416 470.901 179.84C470.591 179.264 470.17 178.811 469.637 178.48C469.114 178.149 468.511 177.984 467.829 177.984C467.157 177.984 466.554 178.149 466.021 178.48C465.487 178.811 465.066 179.264 464.757 179.84C464.458 180.416 464.309 181.067 464.309 181.792V181.856C464.309 182.613 464.474 183.285 464.805 183.872C465.135 184.459 465.589 184.917 466.165 185.248C466.741 185.579 467.397 185.744 468.133 185.744C468.687 185.744 469.21 185.637 469.701 185.424C470.202 185.211 470.618 184.891 470.949 184.464L471.173 184.688C470.81 185.136 470.362 185.477 469.829 185.712C469.295 185.936 468.73 186.048 468.133 186.048ZM476.275 186.048C475.603 186.048 474.974 185.941 474.387 185.728C473.801 185.515 473.353 185.243 473.043 184.912L473.235 184.656C473.534 184.944 473.95 185.2 474.483 185.424C475.017 185.637 475.614 185.744 476.275 185.744C477.257 185.744 477.961 185.573 478.387 185.232C478.814 184.891 479.027 184.448 479.027 183.904C479.027 183.509 478.926 183.2 478.723 182.976C478.521 182.741 478.249 182.565 477.907 182.448C477.577 182.32 477.209 182.219 476.803 182.144C476.398 182.069 475.993 181.989 475.587 181.904C475.182 181.819 474.809 181.701 474.467 181.552C474.137 181.392 473.87 181.179 473.667 180.912C473.465 180.635 473.363 180.267 473.363 179.808C473.363 179.435 473.465 179.088 473.667 178.768C473.87 178.448 474.185 178.187 474.611 177.984C475.049 177.781 475.609 177.68 476.291 177.68C476.803 177.68 477.31 177.76 477.811 177.92C478.313 178.069 478.718 178.272 479.027 178.528L478.835 178.784C478.505 178.517 478.115 178.32 477.667 178.192C477.219 178.053 476.761 177.984 476.291 177.984C475.385 177.984 474.723 178.16 474.307 178.512C473.902 178.864 473.699 179.296 473.699 179.808C473.699 180.213 473.801 180.539 474.003 180.784C474.206 181.019 474.473 181.2 474.803 181.328C475.145 181.456 475.518 181.557 475.923 181.632C476.329 181.707 476.729 181.787 477.123 181.872C477.529 181.957 477.897 182.075 478.227 182.224C478.569 182.373 478.841 182.581 479.043 182.848C479.246 183.104 479.347 183.456 479.347 183.904C479.347 184.32 479.235 184.693 479.011 185.024C478.787 185.344 478.446 185.595 477.987 185.776C477.539 185.957 476.969 186.048 476.275 186.048ZM481.778 186V177.728H482.098V186H481.778ZM481.938 175.44C481.831 175.44 481.735 175.397 481.65 175.312C481.564 175.227 481.522 175.131 481.522 175.024C481.522 174.907 481.564 174.811 481.65 174.736C481.735 174.651 481.831 174.608 481.938 174.608C482.055 174.608 482.151 174.651 482.226 174.736C482.311 174.811 482.354 174.907 482.354 175.024C482.354 175.131 482.311 175.227 482.226 175.312C482.151 175.397 482.055 175.44 481.938 175.44ZM489.106 189.152C488.359 189.152 487.66 189.029 487.01 188.784C486.359 188.539 485.836 188.203 485.442 187.776L485.666 187.552C486.092 187.968 486.599 188.288 487.186 188.512C487.772 188.736 488.412 188.848 489.106 188.848C490.3 188.848 491.18 188.565 491.746 188C492.322 187.435 492.61 186.539 492.61 185.312V182.656L492.77 181.696L492.61 180.736V177.728H492.93V185.264C492.93 186.597 492.61 187.579 491.97 188.208C491.34 188.837 490.386 189.152 489.106 189.152ZM488.866 185.728C488.098 185.728 487.404 185.557 486.786 185.216C486.178 184.864 485.692 184.384 485.33 183.776C484.978 183.168 484.802 182.475 484.802 181.696C484.802 180.907 484.978 180.213 485.33 179.616C485.692 179.008 486.178 178.533 486.786 178.192C487.404 177.851 488.098 177.68 488.866 177.68C489.644 177.68 490.332 177.851 490.93 178.192C491.538 178.533 492.012 179.008 492.354 179.616C492.706 180.213 492.882 180.907 492.882 181.696C492.882 182.475 492.706 183.168 492.354 183.776C492.012 184.384 491.538 184.864 490.93 185.216C490.332 185.557 489.644 185.728 488.866 185.728ZM488.866 185.424C489.591 185.424 490.231 185.269 490.786 184.96C491.351 184.64 491.794 184.197 492.114 183.632C492.444 183.067 492.61 182.421 492.61 181.696C492.61 180.96 492.444 180.315 492.114 179.76C491.794 179.205 491.351 178.773 490.786 178.464C490.231 178.144 489.591 177.984 488.866 177.984C488.151 177.984 487.511 178.144 486.946 178.464C486.38 178.773 485.932 179.205 485.602 179.76C485.282 180.315 485.122 180.96 485.122 181.696C485.122 182.421 485.282 183.067 485.602 183.632C485.932 184.197 486.38 184.64 486.946 184.96C487.511 185.269 488.151 185.424 488.866 185.424ZM500.398 177.68C501.08 177.68 501.667 177.813 502.158 178.08C502.648 178.336 503.027 178.72 503.294 179.232C503.571 179.744 503.71 180.373 503.71 181.12V186H503.39V181.12C503.39 180.096 503.128 179.317 502.606 178.784C502.083 178.251 501.352 177.984 500.414 177.984C499.688 177.984 499.064 178.133 498.542 178.432C498.019 178.72 497.619 179.131 497.342 179.664C497.064 180.187 496.926 180.8 496.926 181.504V186H496.606V177.728H496.926V180.08L496.894 180.032C497.139 179.307 497.56 178.736 498.158 178.32C498.755 177.893 499.502 177.68 500.398 177.68ZM510.445 186.048C509.645 186.048 508.936 185.872 508.317 185.52C507.698 185.157 507.208 184.661 506.845 184.032C506.493 183.392 506.317 182.667 506.317 181.856C506.317 181.035 506.482 180.315 506.813 179.696C507.144 179.067 507.597 178.576 508.173 178.224C508.76 177.861 509.416 177.68 510.141 177.68C510.866 177.68 511.517 177.856 512.093 178.208C512.68 178.549 513.138 179.029 513.469 179.648C513.81 180.267 513.981 180.976 513.981 181.776C513.981 181.787 513.981 181.797 513.981 181.808C513.981 181.819 513.981 181.835 513.981 181.856H506.493V181.552H513.805L513.677 181.792C513.677 181.067 513.522 180.416 513.213 179.84C512.904 179.264 512.482 178.811 511.949 178.48C511.426 178.149 510.824 177.984 510.141 177.984C509.469 177.984 508.866 178.149 508.333 178.48C507.8 178.811 507.378 179.264 507.069 179.84C506.77 180.416 506.621 181.067 506.621 181.792V181.856C506.621 182.613 506.786 183.285 507.117 183.872C507.448 184.459 507.901 184.917 508.477 185.248C509.053 185.579 509.709 185.744 510.445 185.744C511 185.744 511.522 185.637 512.013 185.424C512.514 185.211 512.93 184.891 513.261 184.464L513.485 184.688C513.122 185.136 512.674 185.477 512.141 185.712C511.608 185.936 511.042 186.048 510.445 186.048ZM516.684 186V177.728H517.004V180.016L516.972 179.968C517.196 179.243 517.585 178.683 518.14 178.288C518.705 177.883 519.409 177.68 520.252 177.68V178C520.241 178 520.225 178 520.204 178C520.193 178 520.177 178 520.156 178C519.164 178 518.39 178.32 517.836 178.96C517.281 179.589 517.004 180.453 517.004 181.552V186H516.684Z" fill="#E03C8A"/>
</g>
<defs>
<clipPath id="clip0_459_615">
<rect width="812" height="281" rx="14" fill="white"/>
</clipPath>
</defs>
</svg>
